<?xml version="1.0" standalone="no"?>
<!DOCTYPE svg PUBLIC "-//W3C//DTD SVG 20010904//EN"
 "http://www.w3.org/TR/2001/REC-SVG-20010904/DTD/svg10.dtd">
<svg version="1.0" xmlns="http://www.w3.org/2000/svg"
 width="966.000000pt" height="966.000000pt" viewBox="0 0 966.000000 966.000000"
 preserveAspectRatio="xMidYMid meet">
<metadata>
Created by potrace 1.14, written by Peter Selinger 2001-2017
</metadata>
<g transform="translate(0.000000,966.000000) scale(0.100000,-0.100000)"
fill="#000000" stroke="none">
<path d="M9610 9226 c0 -2 11 -6 25 -8 14 -3 25 -1 25 3 0 5 -11 9 -25 9 -14
0 -25 -2 -25 -4z"/>
<path d="M1854 7716 c-17 -8 -39 -24 -48 -37 -19 -28 -21 -100 -4 -117 10 -10
10 -17 -1 -35 -11 -18 -11 -20 0 -9 15 14 33 16 25 3 -3 -5 0 -9 7 -8 6 0 27
-1 44 -1 l33 -2 3 -177 2 -178 3 176 c2 173 2 177 24 182 12 4 29 1 37 -6 14
-11 14 -10 1 7 -14 18 -13 19 3 13 10 -4 16 -3 12 3 -8 13 17 50 35 50 12 0
13 2 1 9 -7 5 -11 13 -8 17 10 16 -28 78 -58 95 -45 26 -76 30 -111 15z"/>
<path d="M7555 7621 c-11 -5 -29 -7 -40 -5 -36 7 -96 -7 -88 -19 4 -7 -1 -6
-10 2 -11 8 -26 11 -44 6 -16 -4 -46 -9 -68 -11 -22 -2 -47 -7 -55 -10 -8 -4
-26 -8 -40 -9 -88 -10 -346 -77 -558 -147 -472 -153 -939 -353 -1527 -651
-235 -120 -285 -142 -303 -134 -35 16 -99 -9 -97 -37 2 -11 -7 -32 -19 -46
l-21 -25 21 18 c21 18 23 17 48 -6 l26 -24 0 -298 c0 -265 -2 -296 -15 -285
-13 11 -14 10 -9 -4 3 -9 10 -16 15 -16 5 0 8 -447 9 -1001 0 -718 -3 -998
-11 -993 -8 4 -8 1 -1 -12 6 -11 11 -117 11 -252 1 -188 -1 -235 -12 -247 -8
-8 -17 -12 -19 -10 -3 3 -5 -2 -5 -10 0 -13 3 -13 19 2 17 16 18 -6 18 -708 0
-439 -4 -730 -10 -739 -7 -12 -12 -8 -21 17 -6 18 -15 30 -20 27 -6 -3 -5 -11
2 -20 17 -20 3 -30 -19 -13 -10 8 0 -2 22 -22 27 -24 35 -38 27 -43 -6 -4 -18
-2 -26 4 -12 10 -13 7 -9 -16 l5 -27 -93 7 c-51 4 -208 17 -348 30 -140 13
-266 25 -280 26 -14 1 -56 2 -95 2 -46 0 -63 3 -50 8 17 8 16 9 -8 9 -22 1
-28 5 -25 19 5 25 -58 52 -94 39 -16 -5 -28 -13 -28 -17 0 -22 -34 -40 -73
-39 -40 1 -41 2 -12 9 18 5 -7 7 -65 5 -56 -3 -81 -1 -60 3 l35 8 -45 6 c-25
4 -97 5 -160 4 -67 -2 -101 -1 -80 4 22 4 -3 6 -65 4 -69 -2 -88 0 -60 5 l40
8 -44 2 c-40 1 -42 2 -30 19 13 15 12 16 -3 4 -19 -15 -181 -25 -173 -11 3 4
-47 7 -111 6 -86 -2 -118 1 -121 11 -3 7 -21 11 -46 11 l-42 -2 40 -8 c51 -10
-2 -7 -410 26 -170 13 -411 32 -533 41 -176 14 -220 20 -208 30 13 9 5 11 -41
11 -50 0 -53 -1 -23 -7 l35 -7 -31 -2 c-17 0 -53 2 -80 6 -42 6 -45 8 -24 14
23 6 23 7 -7 8 -28 1 -33 5 -33 25 0 13 -7 29 -15 36 -8 7 -15 18 -15 24 0 6
132 143 294 305 215 215 297 291 307 285 8 -5 38 -11 68 -14 l54 -5 46 -75
c115 -186 144 -241 132 -253 -6 -6 -11 -20 -11 -30 0 -10 -9 -21 -20 -24 -11
-3 -17 -9 -14 -15 3 -5 14 -6 23 -3 10 3 24 -1 31 -10 9 -11 27 -15 56 -14 31
2 50 -3 66 -17 22 -18 22 -18 -1 8 -18 21 -21 29 -10 32 41 13 43 14 23 15
-17 1 -21 7 -19 26 2 14 -2 25 -8 25 -6 0 0 12 14 28 l24 27 -27 -24 c-24 -21
-30 -22 -44 -10 -9 7 -28 12 -43 11 -24 -2 -34 11 -119 155 -90 154 -92 158
-73 176 17 18 20 18 50 3 17 -9 31 -14 31 -12 0 3 -15 13 -32 22 -30 16 -31
18 -13 25 11 4 15 8 8 8 -7 1 -10 8 -7 16 5 12 32 15 152 15 80 0 143 3 139 6
-3 3 -72 5 -154 5 -90 -1 -143 2 -134 8 7 5 9 10 5 12 -5 2 -17 15 -26 29
l-16 25 116 120 117 120 -121 -118 c-86 -84 -125 -116 -136 -112 -10 4 -15 13
-11 23 4 14 3 14 -5 3 -6 -8 -17 -11 -26 -8 -14 6 -16 49 -16 414 1 301 4 411
13 422 9 12 9 13 0 7 -10 -5 -13 12 -13 75 0 72 3 86 23 108 l22 26 -22 -19
-23 -19 0 303 0 303 27 -24 28 -24 -27 30 -27 30 -1 227 c0 171 3 228 13 231
6 3 -1 6 -18 6 -18 0 -25 -2 -18 -7 9 -6 12 -41 12 -116 l0 -108 -21 19 -20
18 20 -35 c18 -30 20 -49 17 -125 -1 -49 -3 -92 -4 -94 0 -3 -13 6 -28 20
l-28 24 28 -32 29 -31 -1 -323 c-2 -289 -4 -325 -19 -344 -16 -19 -16 -19 1
-6 16 13 17 8 17 -61 0 -71 -1 -75 -34 -107 -24 -23 -35 -29 -39 -19 -3 7 -6
2 -6 -12 -1 -23 0 -23 38 14 l39 38 4 -139 c3 -76 6 -255 7 -398 l2 -261 -40
-17 c-27 -12 -44 -29 -57 -55 -16 -34 -16 -40 -1 -82 l17 -45 -297 -297 c-273
-273 -298 -295 -319 -286 -12 6 -25 20 -28 33 -3 12 -6 394 -6 849 l0 828 25
20 c32 25 32 48 0 82 -25 27 -25 29 -25 209 l0 182 32 -32 c27 -27 29 -34 18
-48 -32 -38 -2 -147 44 -159 40 -11 102 -6 125 10 63 45 58 141 -11 179 -26
15 -34 25 -28 34 4 8 5 21 2 30 -5 12 -7 10 -12 -8 -3 -16 -15 -27 -32 -32
-22 -6 -28 -3 -31 15 l-4 21 -2 -21 c0 -12 -8 -27 -16 -34 -13 -11 -21 -8 -51
21 l-35 34 2 356 2 356 34 15 c33 15 35 15 66 -10 l32 -26 -30 32 c-26 29 -27
34 -14 48 13 12 14 25 7 62 -5 26 -9 52 -10 59 -1 7 -4 11 -7 11 -3 -1 -23 7
-43 17 l-38 19 0 368 c0 266 3 367 11 362 8 -5 8 -1 0 14 -7 13 -11 94 -11
218 l0 197 27 -24 c23 -20 22 -18 -5 14 -18 21 -32 41 -32 45 0 4 -30 5 -67 2
-86 -8 -111 -3 -119 22 -8 27 -62 58 -101 58 -69 0 -113 -44 -113 -112 0 -43
24 -76 66 -94 l34 -14 0 -813 0 -812 -22 -10 c-17 -7 -24 -20 -26 -47 -3 -30
1 -40 22 -54 l26 -16 0 -1377 0 -1377 -35 -13 c-41 -14 -65 -54 -65 -104 0
-68 69 -114 143 -97 48 10 54 16 77 61 l20 39 433 0 c1236 1 1372 0 1376 -11
8 -24 42 -49 67 -49 16 0 37 12 54 30 l28 30 880 0 c880 0 881 0 887 -21 7
-20 41 -39 71 -39 8 0 26 11 40 25 l25 25 1917 2 1917 3 3 2383 2 2382 -140 0
-140 0 0 115 0 115 -122 128 c-127 131 -439 458 -568 595 -71 75 -74 77 -119
76 -25 0 -55 -4 -66 -8z"/>
<path d="M2098 7563 c7 -3 16 -2 19 1 4 3 -2 6 -13 5 -11 0 -14 -3 -6 -6z"/>
<path d="M2138 7553 c7 -3 16 -2 19 1 4 3 -2 6 -13 5 -11 0 -14 -3 -6 -6z"/>
<path d="M2178 7543 c7 -3 16 -2 19 1 4 3 -2 6 -13 5 -11 0 -14 -3 -6 -6z"/>
<path d="M2258 7523 c7 -3 16 -2 19 1 4 3 -2 6 -13 5 -11 0 -14 -3 -6 -6z"/>
<path d="M2010 7517 c0 -2 15 -16 33 -33 l32 -29 -29 33 c-28 30 -36 37 -36
29z"/>
<path d="M2298 7513 c7 -3 16 -2 19 1 4 3 -2 6 -13 5 -11 0 -14 -3 -6 -6z"/>
<path d="M1990 7486 c0 -2 8 -10 18 -17 15 -13 16 -12 3 4 -13 16 -21 21 -21
13z"/>
<path d="M2035 7430 c10 -11 20 -20 23 -20 3 0 -3 9 -13 20 -10 11 -20 20 -23
20 -3 0 3 -9 13 -20z"/>
<path d="M2100 7437 c0 -2 15 -16 33 -33 l32 -29 -29 33 c-28 30 -36 37 -36
29z"/>
<path d="M1625 7338 l-80 -83 83 80 c76 74 87 85 79 85 -1 0 -38 -37 -82 -82z"/>
<path d="M2060 7396 c0 -2 8 -10 18 -17 15 -13 16 -12 3 4 -13 16 -21 21 -21
13z"/>
<path d="M3125 7378 c-25 -14 -67 -58 -56 -58 8 0 19 -37 24 -80 1 -8 12 -16
24 -17 13 -1 34 -3 47 -4 13 -1 29 -11 35 -23 l11 -21 -5 22 c-7 28 25 49 45
30 12 -10 12 -9 2 4 -13 17 -7 29 11 25 7 -2 9 -1 5 1 -5 3 -8 18 -8 34 0 41
-15 66 -50 84 -34 18 -58 19 -85 3z"/>
<path d="M1811 7354 c0 -11 3 -14 6 -6 3 7 2 16 -1 19 -3 4 -6 -2 -5 -13z"/>
<path d="M2105 7340 c10 -11 20 -20 23 -20 3 0 -3 9 -13 20 -10 11 -20 20 -23
20 -3 0 3 -9 13 -20z"/>
<path d="M2190 7357 c0 -2 15 -16 33 -33 l32 -29 -29 33 c-28 30 -36 37 -36
29z"/>
<path d="M2140 7296 c0 -2 8 -10 18 -17 15 -13 16 -12 3 4 -13 16 -21 21 -21
13z"/>
<path d="M2280 7277 c0 -2 15 -16 33 -33 l32 -29 -29 33 c-28 30 -36 37 -36
29z"/>
<path d="M2170 7256 c0 -2 8 -10 18 -17 15 -13 16 -12 3 4 -13 16 -21 21 -21
13z"/>
<path d="M1454 7242 c-23 -15 -34 -50 -25 -75 6 -14 7 -28 3 -32 -4 -4 -2 -6
3 -5 6 1 18 2 28 1 16 -1 17 -27 17 -397 0 -392 0 -396 -20 -391 -11 3 -18 1
-14 -4 12 -21 -13 -6 -51 28 l-40 38 42 -45 c29 -31 40 -49 34 -59 -17 -26 19
-98 41 -84 6 3 14 -1 19 -8 6 -10 9 -11 9 -1 0 20 22 14 54 -15 l31 -28 -24
27 c-21 24 -23 31 -13 50 13 23 13 80 1 73 -3 -3 -15 4 -26 15 -12 10 -24 16
-27 13 -3 -4 -6 172 -6 389 l0 396 28 5 c15 3 34 0 42 -6 12 -9 13 -8 3 2 -6
7 -9 28 -6 45 3 22 0 38 -10 48 -9 9 -14 17 -12 19 7 8 -70 9 -81 1z"/>
<path d="M2200 7216 c0 -2 8 -10 18 -17 15 -13 16 -12 3 4 -13 16 -21 21 -21
13z"/>
<path d="M2350 7217 c0 -2 15 -16 33 -33 l32 -29 -29 33 c-28 30 -36 37 -36
29z"/>
<path d="M3360 7210 c8 -5 20 -10 25 -10 6 0 3 5 -5 10 -8 5 -19 10 -25 10 -5
0 -3 -5 5 -10z"/>
<path d="M3300 7185 c13 -14 26 -25 28 -25 3 0 -5 11 -18 25 -13 14 -26 25
-28 25 -3 0 5 -11 18 -25z"/>
<path d="M3054 7178 l-19 -23 23 19 c21 18 27 26 19 26 -2 0 -12 -10 -23 -22z"/>
<path d="M3355 7140 c10 -11 20 -20 23 -20 3 0 -3 9 -13 20 -10 11 -20 20 -23
20 -3 0 3 -9 13 -20z"/>
<path d="M1628 7120 c-17 -12 -29 -16 -36 -10 -8 7 -9 7 -4 0 5 -6 7 -33 4
-60 -4 -44 -2 -52 26 -80 17 -16 38 -30 46 -30 9 0 16 -5 16 -10 0 -7 6 -7 18
-1 22 12 74 25 87 22 5 -2 7 1 3 4 -4 4 -1 17 7 29 25 35 19 81 -16 121 -27
31 -37 35 -79 35 -32 0 -55 -6 -72 -20z"/>
<path d="M2999 7113 l-24 -28 28 24 c25 23 32 31 24 31 -2 0 -14 -12 -28 -27z"/>
<path d="M2270 7126 c0 -2 8 -10 18 -17 15 -13 16 -12 3 4 -13 16 -21 21 -21
13z"/>
<path d="M2470 7105 c13 -14 26 -25 28 -25 3 0 -5 11 -18 25 -13 14 -26 25
-28 25 -3 0 5 -11 18 -25z"/>
<path d="M3405 7100 c10 -11 20 -20 23 -20 3 0 -3 9 -13 20 -10 11 -20 20 -23
20 -3 0 3 -9 13 -20z"/>
<path d="M3580 7110 c8 -5 20 -10 25 -10 6 0 3 5 -5 10 -8 5 -19 10 -25 10 -5
0 -3 -5 5 -10z"/>
<path d="M1394 7088 c-12 -14 -13 -18 -3 -10 9 6 18 10 21 7 2 -3 5 2 5 10 0
19 0 19 -23 -7z"/>
<path d="M3173 7060 c0 -25 2 -35 4 -22 2 12 2 32 0 45 -2 12 -4 2 -4 -23z"/>
<path d="M2315 7070 c10 -11 20 -20 23 -20 3 0 -3 9 -13 20 -10 11 -20 20 -23
20 -3 0 3 -9 13 -20z"/>
<path d="M1900 6981 c0 -79 -3 -101 -12 -95 -10 6 -10 4 0 -7 9 -9 12 -64 12
-197 0 -164 -2 -186 -17 -198 -17 -13 -17 -14 0 -8 16 6 17 -13 17 -310 0
-254 -3 -316 -13 -316 -26 0 -49 -27 -49 -56 0 -16 -8 -38 -17 -48 -15 -18
-15 -18 7 -5 20 12 25 12 36 -3 7 -10 16 -15 19 -11 4 3 7 -77 7 -178 0 -123
4 -179 10 -169 5 8 9 74 9 146 0 72 3 148 6 168 8 39 35 62 62 52 12 -5 13 -3
6 6 -15 19 -23 74 -13 84 6 6 -1 9 -18 8 -15 0 -30 4 -34 10 -4 6 -8 151 -8
322 0 234 3 313 13 323 9 11 9 12 0 7 -10 -6 -13 54 -13 280 0 158 -2 289 -5
292 -3 3 -5 -41 -5 -97z"/>
<path d="M2949 7053 c-13 -16 -12 -17 4 -4 16 13 21 21 13 21 -2 0 -10 -8 -17
-17z"/>
<path d="M2539 7048 c10 -14 9 -21 -4 -41 -20 -32 -20 -148 1 -140 6 2 17 -3
24 -12 17 -21 104 -20 141 2 27 16 29 16 49 -2 l20 -18 -22 -26 -23 -26 28 24
27 25 43 -40 42 -39 -42 45 c-41 44 -42 46 -25 65 17 19 17 19 -5 1 -22 -18
-24 -18 -42 -2 -16 15 -18 23 -9 47 7 19 7 38 0 58 -8 23 -7 32 6 47 16 17 16
17 0 5 -15 -11 -23 -9 -54 9 -29 19 -45 22 -89 17 -33 -3 -58 -1 -66 6 -11 10
-11 9 0 -5z"/>
<path d="M3460 7056 c0 -2 8 -10 18 -17 15 -13 16 -12 3 4 -13 16 -21 21 -21
13z"/>
<path d="M1294 6974 c-51 -58 -60 -64 -83 -58 -40 12 -87 7 -115 -11 -30 -20
-50 -74 -41 -115 7 -33 57 -80 85 -80 10 0 21 -6 23 -12 4 -10 6 -10 6 0 1 6
11 12 24 12 13 0 29 -6 36 -12 11 -11 13 -10 7 0 -4 7 3 25 18 43 31 37 34 93
9 138 l-18 30 40 43 c54 58 79 88 72 88 -3 0 -31 -30 -63 -66z"/>
<path d="M2340 7036 c0 -2 8 -10 18 -17 15 -13 16 -12 3 4 -13 16 -21 21 -21
13z"/>
<path d="M2904 6998 l-19 -23 23 19 c21 18 27 26 19 26 -2 0 -12 -10 -23 -22z"/>
<path d="M3585 6950 c10 -11 20 -20 23 -20 3 0 -3 9 -13 20 -10 11 -20 20 -23
20 -3 0 3 -9 13 -20z"/>
<path d="M2849 6933 l-24 -28 28 24 c25 23 32 31 24 31 -2 0 -14 -12 -28 -27z"/>
<path d="M1800 6946 c0 -2 8 -10 18 -17 15 -13 16 -12 3 4 -13 16 -21 21 -21
13z"/>
<path d="M2410 6946 c0 -2 8 -10 18 -17 15 -13 16 -12 3 4 -13 16 -21 21 -21
13z"/>
<path d="M3970 6936 c0 -2 7 -7 16 -10 8 -3 12 -2 9 4 -6 10 -25 14 -25 6z"/>
<path d="M2440 6906 c0 -2 8 -10 18 -17 15 -13 16 -12 3 4 -13 16 -21 21 -21
13z"/>
<path d="M3183 6855 c0 -33 2 -45 4 -27 2 18 2 45 0 60 -2 15 -4 0 -4 -33z"/>
<path d="M3640 6906 c0 -2 8 -10 18 -17 15 -13 16 -12 3 4 -13 16 -21 21 -21
13z"/>
<path d="M4135 6892 c-23 -13 -29 -23 -27 -42 6 -39 33 -65 67 -64 50 1 75 20
75 58 0 28 -5 36 -34 50 -41 19 -43 19 -81 -2z"/>
<path d="M3705 6850 c10 -11 20 -20 23 -20 3 0 -3 9 -13 20 -10 11 -20 20 -23
20 -3 0 3 -9 13 -20z"/>
<path d="M2483 6847 c0 -8 6 -14 14 -14 9 0 10 4 2 14 -6 7 -12 13 -14 13 -1
0 -2 -6 -2 -13z"/>
<path d="M2141 6814 c0 -11 3 -14 6 -6 3 7 2 16 -1 19 -3 4 -6 -2 -5 -13z"/>
<path d="M1970 6816 c0 -2 8 -10 18 -17 15 -13 16 -12 3 4 -13 16 -21 21 -21
13z"/>
<path d="M2510 6816 c0 -2 8 -10 18 -17 15 -13 16 -12 3 4 -13 16 -21 21 -21
13z"/>
<path d="M3760 6806 c0 -2 8 -10 18 -17 15 -13 16 -12 3 4 -13 16 -21 21 -21
13z"/>
<path d="M2010 6786 c0 -2 8 -10 18 -17 15 -13 16 -12 3 4 -13 16 -21 21 -21
13z"/>
<path d="M4310 6780 c8 -5 20 -10 25 -10 6 0 3 5 -5 10 -8 5 -19 10 -25 10 -5
0 -3 -5 5 -10z"/>
<path d="M3826 6748 c10 -15 23 -28 28 -28 6 0 21 -10 35 -22 l26 -23 -23 26
c-12 14 -19 29 -15 34 5 4 2 5 -5 1 -8 -5 -24 1 -39 15 l-26 24 19 -27z"/>
<path d="M2684 6738 l-19 -23 23 19 c21 18 27 26 19 26 -2 0 -12 -10 -23 -22z"/>
<path d="M2909 6717 c19 -20 35 -37 35 -37 1 0 2 12 3 27 1 18 -2 22 -7 12 -7
-11 -14 -9 -37 11 -19 17 -17 13 6 -13z"/>
<path d="M4210 6735 c0 -5 5 -17 10 -25 5 -8 10 -10 10 -5 0 6 -5 17 -10 25
-5 8 -10 11 -10 5z"/>
<path d="M4420 6730 c8 -5 20 -10 25 -10 6 0 3 5 -5 10 -8 5 -19 10 -25 10 -5
0 -3 -5 5 -10z"/>
<path d="M2155 6714 c-11 -8 -25 -12 -33 -9 -8 3 -10 0 -6 -7 10 -15 5 -92 -5
-96 -5 -1 -17 -10 -27 -18 -17 -14 -16 -14 10 -1 26 13 31 12 48 -5 14 -14 18
-28 15 -46 l-6 -27 12 28 c10 25 15 27 54 24 23 -2 40 -1 38 1 -3 3 8 15 23
26 29 22 30 36 11 88 -17 42 -98 68 -134 42z"/>
<path d="M2643 6691 c-27 -23 -28 -27 -7 -35 9 -3 12 -2 9 5 -4 6 1 19 11 30
22 24 16 24 -13 0z"/>
<path d="M3193 6640 c0 -36 2 -50 4 -32 2 17 2 47 0 65 -2 17 -4 3 -4 -33z"/>
<path d="M4090 6682 c0 -4 -18 -6 -40 -4 -26 3 -49 -2 -66 -13 -21 -14 -28
-14 -42 -3 -15 12 -16 11 -4 -4 10 -13 11 -26 2 -57 -9 -35 -15 -40 -43 -44
l-32 -4 36 -1 c28 -2 38 -8 48 -28 10 -23 9 -30 -11 -53 l-23 -26 27 24 c23
20 30 22 43 11 22 -18 106 -19 128 -1 16 13 20 12 50 -15 l32 -29 -28 31 c-23
25 -27 36 -19 50 6 11 13 27 16 36 3 11 18 18 43 21 l38 4 -42 1 c-32 2 -43 6
-43 18 0 9 -16 34 -35 55 -19 22 -35 36 -35 31z"/>
<path d="M2970 6667 c0 -2 15 -16 33 -33 l32 -29 -29 33 c-28 30 -36 37 -36
29z"/>
<path d="M2594 6628 l-19 -23 23 19 c21 18 27 26 19 26 -2 0 -12 -10 -23 -22z"/>
<path d="M2665 6620 c10 -11 20 -20 23 -20 3 0 -3 9 -13 20 -10 11 -20 20 -23
20 -3 0 3 -9 13 -20z"/>
<path d="M3414 6583 c3 -30 8 -34 24 -17 10 11 10 14 -2 14 -8 0 -17 6 -20 13
-2 6 -4 2 -2 -10z"/>
<path d="M3470 6590 c-8 -5 -10 -10 -5 -10 6 0 17 5 25 10 8 5 11 10 5 10 -5
0 -17 -5 -25 -10z"/>
<path d="M2720 6550 c17 -22 34 -40 37 -40 2 0 -10 18 -27 40 -17 22 -34 40
-37 40 -2 0 10 -18 27 -40z"/>
<path d="M3080 6565 c13 -14 26 -25 28 -25 3 0 -5 11 -18 25 -13 14 -26 25
-28 25 -3 0 5 -11 18 -25z"/>
<path d="M4483 6583 c32 -2 81 -2 110 0 29 2 3 3 -58 3 -60 0 -84 -1 -52 -3z"/>
<path d="M1310 6560 c6 -11 13 -20 16 -20 2 0 0 9 -6 20 -6 11 -13 20 -16 20
-2 0 0 -9 6 -20z"/>
<path d="M2534 6558 l-19 -23 23 19 c21 18 27 26 19 26 -2 0 -12 -10 -23 -22z"/>
<path d="M2030 6560 c-9 -6 -10 -10 -3 -10 6 0 15 5 18 10 8 12 4 12 -15 0z"/>
<path d="M3152 6554 c-25 -13 -36 -27 -44 -60 -11 -39 -15 -43 -47 -47 l-36
-4 40 -2 c29 -1 48 -9 68 -30 29 -30 73 -45 83 -29 3 5 12 4 20 -3 12 -10 15
-10 12 2 -2 8 4 13 14 13 10 -1 17 1 16 5 0 3 5 20 11 38 10 26 20 34 49 38
63 11 69 15 15 10 -45 -3 -53 -1 -58 15 -7 23 -52 56 -86 64 -13 4 -38 -1 -57
-10z"/>
<path d="M2470 6540 c8 -5 20 -10 25 -10 6 0 3 5 -5 10 -8 5 -19 10 -25 10 -5
0 -3 -5 5 -10z"/>
<path d="M3808 6543 c12 -2 30 -2 40 0 9 3 -1 5 -23 4 -22 0 -30 -2 -17 -4z"/>
<path d="M3675 6530 c-34 -6 -35 -7 -10 -8 17 0 50 3 75 7 40 8 41 8 10 8 -19
0 -53 -3 -75 -7z"/>
<path d="M4639 6503 l-34 -38 38 34 c20 19 37 36 37 38 0 8 -8 0 -41 -34z"/>
<path d="M2505 6520 c-3 -6 1 -7 9 -4 18 7 21 14 7 14 -6 0 -13 -4 -16 -10z"/>
<path d="M3578 6513 c12 -2 30 -2 40 0 9 3 -1 5 -23 4 -22 0 -30 -2 -17 -4z"/>
<path d="M3425 6499 c-19 -7 -19 -8 2 -8 12 -1 23 -5 25 -10 2 -5 8 -3 15 4 9
10 8 14 -5 17 -10 3 -26 1 -37 -3z"/>
<path d="M3503 6503 c9 -2 25 -2 35 0 9 3 1 5 -18 5 -19 0 -27 -2 -17 -5z"/>
<path d="M2772 6485 c24 -29 10 -49 -27 -35 -15 6 -30 9 -32 6 -2 -2 10 -8 26
-14 42 -15 41 -48 -1 -85 l-33 -29 33 22 c29 20 37 21 57 10 13 -7 26 -20 28
-29 4 -14 5 -14 6 0 2 25 31 32 47 12 13 -17 14 -17 8 0 -4 10 1 26 11 37 9
10 14 23 11 29 -4 5 6 12 21 14 l28 4 -27 2 c-16 0 -36 13 -52 32 -14 17 -26
26 -26 21 0 -16 -54 -11 -75 7 -19 16 -20 15 -3 -4z"/>
<path d="M1370 6460 c6 -11 13 -20 16 -20 2 0 0 9 -6 20 -6 11 -13 20 -16 20
-2 0 0 -9 6 -20z"/>
<path d="M2116 6424 c-9 -26 -14 -49 -12 -51 2 -2 11 17 20 43 9 26 14 49 12
51 -2 2 -11 -17 -20 -43z"/>
<path d="M2434 6438 l-19 -23 23 19 c21 18 27 26 19 26 -2 0 -12 -10 -23 -22z"/>
<path d="M3318 6453 c6 -2 18 -2 25 0 6 3 1 5 -13 5 -14 0 -19 -2 -12 -5z"/>
<path d="M3453 6446 c-9 -11 -8 -15 6 -19 14 -3 17 0 14 14 -6 22 -5 22 -20 5z"/>
<path d="M3388 6443 c7 -3 16 -2 19 1 4 3 -2 6 -13 5 -11 0 -14 -3 -6 -6z"/>
<path d="M4539 6413 l-34 -38 38 34 c20 19 37 36 37 38 0 8 -8 0 -41 -34z"/>
<path d="M2241 6424 c0 -11 3 -14 6 -6 3 7 2 16 -1 19 -3 4 -6 -2 -5 -13z"/>
<path d="M2973 6433 c9 -2 25 -2 35 0 9 3 1 5 -18 5 -19 0 -27 -2 -17 -5z"/>
<path d="M3786 6417 c-14 -14 -31 -27 -38 -30 -9 -4 -8 -6 3 -6 15 -1 33 -33
30 -53 -2 -14 84 -9 104 6 11 7 29 16 40 19 20 5 20 5 0 6 -19 1 -23 8 -27 57
-1 6 -6 11 -12 11 -6 1 -25 4 -43 8 -26 6 -36 3 -57 -18z"/>
<path d="M3558 6413 c7 -3 16 -2 19 1 4 3 -2 6 -13 5 -11 0 -14 -3 -6 -6z"/>
<path d="M4220 6417 c0 -2 15 -16 33 -33 l32 -29 -29 33 c-28 30 -36 37 -36
29z"/>
<path d="M2928 6393 c7 -3 16 -2 19 1 4 3 -2 6 -13 5 -11 0 -14 -3 -6 -6z"/>
<path d="M3678 6393 c7 -3 16 -2 19 1 4 3 -2 6 -13 5 -11 0 -14 -3 -6 -6z"/>
<path d="M2377 6372 c-15 -16 -15 -19 -2 -19 8 0 13 3 10 5 -3 3 0 11 6 19 17
20 5 16 -14 -5z"/>
<path d="M3088 6363 c7 -3 16 -2 19 1 4 3 -2 6 -13 5 -11 0 -14 -3 -6 -6z"/>
<path d="M3145 6362 c-6 -4 -11 -13 -13 -21 -3 -12 -1 -12 15 -1 10 8 19 15
21 16 2 1 -1 4 -5 7 -5 3 -13 3 -18 -1z"/>
<path d="M4460 6345 c-17 -19 -27 -22 -41 -15 -10 6 -27 10 -38 10 -10 0 -21
3 -24 8 -2 4 -2 2 -1 -5 4 -17 -21 -23 -37 -10 -11 10 -11 9 -1 -4 6 -8 9 -25
5 -37 -7 -28 21 -72 46 -72 11 0 22 -8 24 -17 4 -16 5 -16 6 1 1 14 7 17 26
14 13 -3 22 -2 20 3 -3 4 0 19 6 32 8 18 8 30 1 43 -9 15 -6 24 16 47 14 15
23 27 21 27 -3 0 -16 -11 -29 -25z"/>
<path d="M3254 6352 c3 -5 2 -12 -4 -14 -5 -1 2 -8 15 -14 22 -11 24 -10 15 6
-6 11 -15 22 -22 26 -6 4 -8 3 -4 -4z"/>
<path d="M3336 6338 c10 -15 28 -27 39 -27 14 0 16 2 5 6 -8 3 -26 15 -39 27
l-24 21 19 -27z"/>
<path d="M3198 6343 c7 -3 16 -2 19 1 4 3 -2 6 -13 5 -11 0 -14 -3 -6 -6z"/>
<path d="M3978 6343 c7 -3 16 -2 19 1 4 3 -2 6 -13 5 -11 0 -14 -3 -6 -6z"/>
<path d="M4038 6333 c7 -3 16 -2 19 1 4 3 -2 6 -13 5 -11 0 -14 -3 -6 -6z"/>
<path d="M2061 6269 c-11 -34 -19 -64 -17 -66 2 -2 13 24 25 58 11 34 19 64
17 66 -2 2 -13 -24 -25 -58z"/>
<path d="M2329 6313 c-13 -16 -12 -17 4 -4 16 13 21 21 13 21 -2 0 -10 -8 -17
-17z"/>
<path d="M2669 6309 l-24 -20 28 17 c15 9 27 18 27 20 0 8 -8 4 -31 -17z"/>
<path d="M4108 6323 c7 -3 16 -2 19 1 4 3 -2 6 -13 5 -11 0 -14 -3 -6 -6z"/>
<path d="M4156 6321 c-3 -5 1 -11 9 -15 8 -3 15 -1 15 4 0 13 -18 22 -24 11z"/>
<path d="M4748 6323 c7 -3 16 -2 19 1 4 3 -2 6 -13 5 -11 0 -14 -3 -6 -6z"/>
<path d="M2776 6305 c-9 -26 -7 -32 5 -12 6 10 9 21 6 23 -2 3 -7 -2 -11 -11z"/>
<path d="M4658 6313 c6 -2 18 -2 25 0 6 3 1 5 -13 5 -14 0 -19 -2 -12 -5z"/>
<path d="M3418 6303 c7 -3 16 -2 19 1 4 3 -2 6 -13 5 -11 0 -14 -3 -6 -6z"/>
<path d="M4218 6303 c7 -3 16 -2 19 1 4 3 -2 6 -13 5 -11 0 -14 -3 -6 -6z"/>
<path d="M4588 6303 c7 -3 16 -2 19 1 4 3 -2 6 -13 5 -11 0 -14 -3 -6 -6z"/>
<path d="M2271 6284 c0 -11 3 -14 6 -6 3 7 2 16 -1 19 -3 4 -6 -2 -5 -13z"/>
<path d="M3468 6293 c7 -3 16 -2 19 1 4 3 -2 6 -13 5 -11 0 -14 -3 -6 -6z"/>
<path d="M4278 6293 c7 -3 16 -2 19 1 4 3 -2 6 -13 5 -11 0 -14 -3 -6 -6z"/>
<path d="M4498 6293 c6 -2 18 -2 25 0 6 3 1 5 -13 5 -14 0 -19 -2 -12 -5z"/>
<path d="M3520 6279 c0 -5 5 -7 10 -4 6 3 10 8 10 11 0 2 -4 4 -10 4 -5 0 -10
-5 -10 -11z"/>
<path d="M4180 6281 c0 -6 4 -13 10 -16 6 -3 7 1 4 9 -7 18 -14 21 -14 7z"/>
<path d="M2274 6248 c-16 -18 -22 -27 -13 -20 9 6 18 10 20 8 2 -3 9 6 16 20
14 31 13 30 -23 -8z"/>
<path d="M3213 6225 c0 -33 2 -45 4 -27 2 18 2 45 0 60 -2 15 -4 0 -4 -33z"/>
<path d="M3578 6273 c7 -3 16 -2 19 1 4 3 -2 6 -13 5 -11 0 -14 -3 -6 -6z"/>
<path d="M2813 6230 c0 -25 2 -35 4 -22 2 12 2 32 0 45 -2 12 -4 2 -4 -23z"/>
<path d="M3080 6250 c-6 -11 -8 -20 -6 -20 3 0 10 9 16 20 6 11 8 20 6 20 -3
0 -10 -9 -16 -20z"/>
<path d="M3628 6263 c7 -3 16 -2 19 1 4 3 -2 6 -13 5 -11 0 -14 -3 -6 -6z"/>
<path d="M3715 6260 c-3 -5 -11 -8 -18 -6 -7 1 -8 1 -4 -2 5 -2 0 -14 -10 -26
-10 -11 -3 -8 15 8 17 17 32 31 32 33 0 7 -9 3 -15 -7z"/>
<path d="M2412 6225 c-77 -87 1 -207 114 -176 28 8 42 7 53 -1 13 -10 14 -10
4 2 -10 10 -8 18 7 38 26 32 26 92 0 124 -10 14 -17 27 -15 30 4 4 -2 5 -81
14 -48 5 -52 4 -82 -31z"/>
<path d="M3445 6240 c10 -11 20 -20 23 -20 3 0 -3 9 -13 20 -10 11 -20 20 -23
20 -3 0 3 -9 13 -20z"/>
<path d="M3330 6230 c6 -11 13 -20 16 -20 2 0 0 9 -6 20 -6 11 -13 20 -16 20
-2 0 0 -9 6 -20z"/>
<path d="M3738 6243 c7 -3 16 -2 19 1 4 3 -2 6 -13 5 -11 0 -14 -3 -6 -6z"/>
<path d="M4181 6200 c-15 -30 -32 -51 -45 -53 -17 -3 -16 -5 5 -6 30 -1 44
-31 25 -52 -8 -9 -8 -10 2 -5 22 13 13 -7 -20 -44 l-33 -35 40 38 c43 39 56
45 51 25 -1 -7 -1 -10 1 -5 3 4 13 7 23 7 17 0 20 -10 23 -77 l3 -78 2 78 c2
66 4 77 20 77 54 0 86 68 56 120 -19 32 -73 56 -101 46 -9 -4 -19 -2 -22 3 -3
5 -17 -13 -30 -39z"/>
<path d="M3798 6233 c7 -3 16 -2 19 1 4 3 -2 6 -13 5 -11 0 -14 -3 -6 -6z"/>
<path d="M3848 6223 c7 -3 16 -2 19 1 4 3 -2 6 -13 5 -11 0 -14 -3 -6 -6z"/>
<path d="M3513 6184 c24 -26 35 -44 28 -48 -6 -4 -11 -18 -11 -31 0 -13 -17
-41 -40 -66 -22 -24 -40 -45 -40 -48 0 -2 3 -1 7 2 3 4 12 2 19 -4 9 -8 11 -6
8 8 -3 11 6 29 24 46 26 25 30 26 42 12 14 -17 67 -20 90 -5 10 6 21 4 35 -8
20 -17 20 -17 0 6 -15 18 -17 27 -8 41 9 14 6 22 -17 42 l-27 24 21 25 21 25
-26 -22 c-27 -25 -69 -31 -69 -10 0 8 -3 7 -10 -3 -8 -12 -16 -9 -47 20 l-38
35 38 -41z"/>
<path d="M3908 6213 c7 -3 16 -2 19 1 4 3 -2 6 -13 5 -11 0 -14 -3 -6 -6z"/>
<path d="M3958 6203 c7 -3 16 -2 19 1 4 3 -2 6 -13 5 -11 0 -14 -3 -6 -6z"/>
<path d="M2214 6178 l-19 -23 23 19 c21 18 27 26 19 26 -2 0 -12 -10 -23 -22z"/>
<path d="M2291 6184 c0 -11 3 -14 6 -6 3 7 2 16 -1 19 -3 4 -6 -2 -5 -13z"/>
<path d="M2725 6189 c-4 -6 -5 -12 -2 -15 2 -3 7 2 10 11 7 17 1 20 -8 4z"/>
<path d="M4008 6193 c7 -3 16 -2 19 1 4 3 -2 6 -13 5 -11 0 -14 -3 -6 -6z"/>
<path d="M4470 6197 c0 -2 15 -16 33 -33 l32 -29 -29 33 c-28 30 -36 37 -36
29z"/>
<path d="M1501 6174 c0 -11 3 -14 6 -6 3 7 2 16 -1 19 -3 4 -6 -2 -5 -13z"/>
<path d="M1991 6074 c-23 -64 -40 -119 -38 -121 3 -2 23 49 46 113 23 64 40
119 38 121 -3 2 -23 -49 -46 -113z"/>
<path d="M4118 6173 c7 -3 16 -2 19 1 4 3 -2 6 -13 5 -11 0 -14 -3 -6 -6z"/>
<path d="M3022 6158 c-14 -14 -16 -28 -3 -28 5 0 11 9 14 20 6 23 5 24 -11 8z"/>
<path d="M4401 6154 c0 -11 3 -14 6 -6 3 7 2 16 -1 19 -3 4 -6 -2 -5 -13z"/>
<path d="M2301 6144 c0 -11 3 -14 6 -6 3 7 2 16 -1 19 -3 4 -6 -2 -5 -13z"/>
<path d="M2174 6128 l-19 -23 23 19 c12 11 22 21 22 23 0 8 -8 2 -26 -19z"/>
<path d="M3390 6130 c6 -11 13 -20 16 -20 2 0 0 9 -6 20 -6 11 -13 20 -16 20
-2 0 0 -9 6 -20z"/>
<path d="M1600 6136 c0 -2 8 -10 18 -17 15 -13 16 -12 3 4 -13 16 -21 21 -21
13z"/>
<path d="M2696 6125 c-9 -26 -7 -32 5 -12 6 10 9 21 6 23 -2 3 -7 -2 -11 -11z"/>
<path d="M4013 6133 c9 -2 23 -2 30 0 6 3 -1 5 -18 5 -16 0 -22 -2 -12 -5z"/>
<path d="M1511 6114 c0 -11 3 -14 6 -6 3 7 2 16 -1 19 -3 4 -6 -2 -5 -13z"/>
<path d="M3883 6123 c9 -2 23 -2 30 0 6 3 -1 5 -18 5 -16 0 -22 -2 -12 -5z"/>
<path d="M2802 6090 c0 -19 2 -27 5 -17 2 9 2 25 0 35 -3 9 -5 1 -5 -18z"/>
<path d="M2990 6100 c-6 -11 -8 -20 -6 -20 3 0 10 9 16 20 6 11 8 20 6 20 -3
0 -10 -9 -16 -20z"/>
<path d="M3758 6113 c12 -2 30 -2 40 0 9 3 -1 5 -23 4 -22 0 -30 -2 -17 -4z"/>
<path d="M4411 6102 c-1 -9 -9 -11 -23 -7 -18 4 -17 2 5 -10 33 -19 37 -17 26
10 -4 11 -8 14 -8 7z"/>
<path d="M4590 6085 c13 -14 26 -25 28 -25 3 0 -5 11 -18 25 -13 14 -26 25
-28 25 -3 0 5 -11 18 -25z"/>
<path d="M3425 6076 c17 -28 17 -30 -1 -44 -18 -13 -17 -14 6 -7 14 4 30 12
35 18 7 7 6 8 -2 3 -7 -4 -13 -4 -13 1 0 4 -10 19 -21 33 l-21 25 17 -29z"/>
<path d="M1640 6086 c0 -2 8 -10 18 -17 15 -13 16 -12 3 4 -13 16 -21 21 -21
13z"/>
<path d="M2309 6069 l-24 -20 28 17 c15 9 27 18 27 20 0 8 -8 4 -31 -17z"/>
<path d="M3050 6086 c0 -2 8 -10 18 -17 15 -13 16 -12 3 4 -13 16 -21 21 -21
13z"/>
<path d="M2114 6058 l-19 -23 23 19 c12 11 22 21 22 23 0 8 -8 2 -26 -19z"/>
<path d="M3224 6002 c1 -34 -3 -62 -8 -62 -5 0 -7 -3 -4 -6 4 -3 19 2 35 11
21 12 22 14 6 10 -21 -6 -22 -2 -26 52 l-4 58 1 -63z"/>
<path d="M4119 6053 c-13 -16 -12 -17 4 -4 16 13 21 21 13 21 -2 0 -10 -8 -17
-17z"/>
<path d="M4421 6044 c0 -11 3 -14 6 -6 3 7 2 16 -1 19 -3 4 -6 -2 -5 -13z"/>
<path d="M2656 6033 c-6 -14 -5 -15 5 -6 7 7 10 15 7 18 -3 3 -9 -2 -12 -12z"/>
<path d="M4074 6018 l-19 -23 23 19 c21 18 27 26 19 26 -2 0 -12 -10 -23 -22z"/>
<path d="M2600 6010 c6 -11 13 -20 16 -20 2 0 0 9 -6 20 -6 11 -13 20 -16 20
-2 0 0 -9 6 -20z"/>
<path d="M3601 6014 c0 -11 3 -14 6 -6 3 7 2 16 -1 19 -3 4 -6 -2 -5 -13z"/>
<path d="M4675 6010 c10 -11 20 -20 23 -20 3 0 -3 9 -13 20 -10 11 -20 20 -23
20 -3 0 3 -9 13 -20z"/>
<path d="M1531 6004 c0 -11 3 -14 6 -6 3 7 2 16 -1 19 -3 4 -6 -2 -5 -13z"/>
<path d="M1715 6000 c10 -11 20 -20 23 -20 3 0 -3 9 -13 20 -10 11 -20 20 -23
20 -3 0 3 -9 13 -20z"/>
<path d="M2064 5998 l-19 -23 23 19 c21 18 27 26 19 26 -2 0 -12 -10 -23 -22z"/>
<path d="M2194 5994 c-18 -14 -18 -15 4 -4 12 6 22 13 22 15 0 8 -5 6 -26 -11z"/>
<path d="M3745 5980 c10 -11 20 -20 23 -20 3 0 -3 9 -13 20 -10 11 -20 20 -23
20 -3 0 3 -9 13 -20z"/>
<path d="M4029 5983 c-13 -16 -12 -17 4 -4 16 13 21 21 13 21 -2 0 -10 -8 -17
-17z"/>
<path d="M4166 5985 c-9 -26 -7 -32 5 -12 6 10 9 21 6 23 -2 3 -7 -2 -11 -11z"/>
<path d="M4431 5984 c0 -11 3 -14 6 -6 3 7 2 16 -1 19 -3 4 -6 -2 -5 -13z"/>
<path d="M3310 5980 c-8 -5 -10 -10 -5 -10 6 0 17 5 25 10 8 5 11 10 5 10 -5
0 -17 -5 -25 -10z"/>
<path d="M2626 5965 c-9 -26 -7 -32 5 -12 6 10 9 21 6 23 -2 3 -7 -2 -11 -11z"/>
<path d="M2792 5955 c0 -16 2 -22 5 -12 2 9 2 23 0 30 -3 6 -5 -1 -5 -18z"/>
<path d="M4650 5970 c8 -5 20 -10 25 -10 6 0 3 5 -5 10 -8 5 -19 10 -25 10 -5
0 -3 -5 5 -10z"/>
<path d="M1310 5966 c0 -2 8 -10 18 -17 15 -13 16 -12 3 4 -13 16 -21 21 -21
13z"/>
<path d="M3611 5954 c0 -11 3 -14 6 -6 3 7 2 16 -1 19 -3 4 -6 -2 -5 -13z"/>
<path d="M4069 5953 c-13 -16 -12 -17 4 -4 9 7 17 15 17 17 0 8 -8 3 -21 -13z"/>
<path d="M1770 5935 c13 -14 26 -25 28 -25 3 0 -5 11 -18 25 -13 14 -26 25
-28 25 -3 0 5 -11 18 -25z"/>
<path d="M2014 5938 l-19 -23 23 19 c21 18 27 26 19 26 -2 0 -12 -10 -23 -22z"/>
<path d="M3969 5933 c-13 -16 -12 -17 4 -4 9 7 17 15 17 17 0 8 -8 3 -21 -13z"/>
<path d="M4441 5934 c0 -11 3 -14 6 -6 3 7 2 16 -1 19 -3 4 -6 -2 -5 -13z"/>
<path d="M1931 5909 c-6 -18 -11 -37 -10 -43 0 -6 7 7 15 28 8 22 12 41 10 43
-2 2 -9 -10 -15 -28z"/>
<path d="M1349 5916 c6 -7 9 -22 5 -32 -5 -16 -4 -16 5 -4 15 21 13 37 -5 44
-14 5 -15 4 -5 -8z"/>
<path d="M3153 5916 c-9 -11 -7 -14 12 -12 17 1 21 4 13 14 -12 14 -10 14 -25
-2z"/>
<path d="M2351 5904 c0 -11 3 -14 6 -6 3 7 2 16 -1 19 -3 4 -6 -2 -5 -13z"/>
<path d="M3621 5904 c0 -11 3 -14 6 -6 3 7 2 16 -1 19 -3 4 -6 -2 -5 -13z"/>
<path d="M3929 5903 c-13 -16 -12 -17 4 -4 9 7 17 15 17 17 0 8 -8 3 -21 -13z"/>
<path d="M1551 5894 c0 -11 3 -14 6 -6 3 7 2 16 -1 19 -3 4 -6 -2 -5 -13z"/>
<path d="M3851 5883 c29 -39 31 -39 48 -10 13 20 13 21 -3 8 -14 -12 -20 -11
-43 10 l-27 24 25 -32z"/>
<path d="M1820 5875 c13 -14 26 -25 28 -25 3 0 -5 11 -18 25 -13 14 -26 25
-28 25 -3 0 5 -11 18 -25z"/>
<path d="M1959 5873 l-24 -28 28 24 c25 23 32 31 24 31 -2 0 -14 -12 -28 -27z"/>
<path d="M2020 5879 c-22 -18 -22 -19 -3 -10 12 6 25 16 28 21 9 15 3 12 -25
-11z"/>
<path d="M4744 5878 l-19 -23 23 19 c21 18 27 26 19 26 -2 0 -12 -10 -23 -22z"/>
<path d="M2586 5873 c-6 -14 -5 -15 5 -6 7 7 10 15 7 18 -3 3 -9 -2 -12 -12z"/>
<path d="M2690 5870 c6 -11 13 -20 16 -20 2 0 0 9 -6 20 -6 11 -13 20 -16 20
-2 0 0 -9 6 -20z"/>
<path d="M3195 5880 c3 -9 -3 -33 -13 -54 -19 -38 -19 -39 2 -81 16 -31 26
-41 39 -37 17 4 18 -4 16 -122 0 -70 2 -130 5 -133 7 -8 7 -6 6 135 -1 108 0
112 20 112 12 0 37 7 55 16 41 19 54 68 30 114 -19 37 -57 53 -107 47 -20 -3
-41 0 -48 7 -8 8 -10 7 -5 -4z"/>
<path d="M3999 5873 c-13 -16 -12 -17 4 -4 9 7 17 15 17 17 0 8 -8 3 -21 -13z"/>
<path d="M3060 5870 c-8 -5 -10 -10 -5 -10 6 0 17 5 25 10 8 5 11 10 5 10 -5
0 -17 -5 -25 -10z"/>
<path d="M2361 5854 c0 -11 3 -14 6 -6 3 7 2 16 -1 19 -3 4 -6 -2 -5 -13z"/>
<path d="M1390 5856 c0 -2 8 -10 18 -17 15 -13 16 -12 3 4 -13 16 -21 21 -21
13z"/>
<path d="M4699 5843 c-13 -16 -12 -17 4 -4 9 7 17 15 17 17 0 8 -8 3 -21 -13z"/>
<path d="M1561 5834 c0 -11 3 -14 6 -6 3 7 2 16 -1 19 -3 4 -6 -2 -5 -13z"/>
<path d="M2778 5838 c-8 -20 -37 -24 -56 -8 -9 7 -9 7 -3 -1 6 -8 4 -20 -6
-35 -16 -25 -25 -116 -10 -107 4 3 19 -7 33 -22 13 -14 24 -21 24 -16 0 6 15
11 34 11 51 0 81 29 81 79 0 35 3 42 28 52 15 6 26 14 23 16 -2 2 -18 -2 -34
-11 -28 -14 -31 -14 -47 4 -10 11 -26 20 -36 20 -10 0 -19 8 -21 18 -3 16 -4
16 -10 0z"/>
<path d="M3834 5828 l-19 -23 23 19 c21 18 27 26 19 26 -2 0 -12 -10 -23 -22z"/>
<path d="M3917 5830 c22 -25 22 -27 5 -45 -17 -19 -16 -19 4 -2 11 9 24 15 27
12 4 -3 5 -2 2 2 -3 3 1 13 7 22 10 13 10 14 -2 4 -11 -10 -19 -9 -39 10 l-26
22 22 -25z"/>
<path d="M2371 5814 c0 -11 3 -14 6 -6 3 7 2 16 -1 19 -3 4 -6 -2 -5 -13z"/>
<path d="M1571 5784 c0 -11 3 -14 6 -6 3 7 2 16 -1 19 -3 4 -6 -2 -5 -13z"/>
<path d="M3640 5786 c0 -19 -11 -20 -29 -3 -10 10 -11 9 -6 -5 9 -22 -21 -66
-48 -71 -21 -4 -21 -4 1 -6 19 -1 23 -6 20 -28 -2 -20 3 -31 17 -39 11 -6 19
-15 18 -20 -1 -6 14 -8 33 -6 45 6 54 -17 19 -52 -21 -21 -25 -33 -20 -53 4
-17 0 -32 -12 -47 -18 -21 -18 -21 3 -3 16 13 27 15 45 9 13 -5 30 -7 37 -5 6
3 12 -1 12 -8 0 -6 11 0 25 15 30 32 32 59 6 85 -11 11 -16 22 -13 26 4 3 -1
3 -10 0 -8 -3 -23 2 -33 11 -16 17 -16 18 1 25 11 4 27 16 37 27 11 12 26 18
38 15 19 -5 19 -6 2 -27 -18 -21 -18 -21 3 -3 11 9 29 17 40 18 10 0 13 3 6 6
-6 2 -9 10 -5 16 5 9 3 9 -8 1 -21 -17 -59 1 -59 28 0 13 -4 30 -10 38 -6 9
-5 20 3 30 11 13 10 13 -6 1 -14 -11 -21 -11 -29 -3 -7 7 -20 12 -29 12 -10 0
-25 7 -33 16 -15 14 -16 14 -16 0z"/>
<path d="M4263 5720 c0 -41 2 -58 4 -37 2 20 2 54 0 75 -2 20 -4 3 -4 -38z"/>
<path d="M2381 5764 c0 -11 3 -14 6 -6 3 7 2 16 -1 19 -3 4 -6 -2 -5 -13z"/>
<path d="M3083 5773 c9 -2 23 -2 30 0 6 3 -1 5 -18 5 -16 0 -22 -2 -12 -5z"/>
<path d="M4060 5773 c-8 -3 -22 -7 -30 -10 -8 -4 -18 -6 -21 -5 -4 1 -5 -18
-3 -41 6 -69 8 -76 18 -70 18 11 85 6 103 -8 16 -13 17 -12 5 2 -8 11 -10 24
-3 40 4 13 5 33 1 45 -10 25 -50 52 -70 47z"/>
<path d="M4471 5764 c0 -11 3 -14 6 -6 3 7 2 16 -1 19 -3 4 -6 -2 -5 -13z"/>
<path d="M2988 5763 c6 -2 18 -2 25 0 6 3 1 5 -13 5 -14 0 -19 -2 -12 -5z"/>
<path d="M4716 5755 c-9 -26 -7 -32 5 -12 6 10 9 21 6 23 -2 3 -7 -2 -11 -11z"/>
<path d="M2898 5753 c6 -2 18 -2 25 0 6 3 1 5 -13 5 -14 0 -19 -2 -12 -5z"/>
<path d="M1470 5746 c0 -2 8 -10 18 -17 15 -13 16 -12 3 4 -13 16 -21 21 -21
13z"/>
<path d="M1582 5730 c0 -14 2 -19 5 -12 2 6 2 18 0 25 -3 6 -5 1 -5 -13z"/>
<path d="M3874 5728 l-19 -23 23 19 c21 18 27 26 19 26 -2 0 -12 -10 -23 -22z"/>
<path d="M3398 5723 c6 -2 18 -2 25 0 6 3 1 5 -13 5 -14 0 -19 -2 -12 -5z"/>
<path d="M4481 5714 c0 -11 3 -14 6 -6 3 7 2 16 -1 19 -3 4 -6 -2 -5 -13z"/>
<path d="M3478 5713 c7 -3 16 -2 19 1 4 3 -2 6 -13 5 -11 0 -14 -3 -6 -6z"/>
<path d="M2077 5699 c7 -7 15 -10 18 -7 3 3 -2 9 -12 12 -14 6 -15 5 -6 -5z"/>
<path d="M4492 5687 c-8 -9 -8 -17 0 -27 8 -13 9 -12 5 1 -3 9 0 22 6 28 6 6
8 11 5 11 -3 0 -10 -6 -16 -13z"/>
<path d="M1555 5681 c-11 -5 -23 -6 -28 -4 -4 2 -6 1 -5 -4 1 -4 -6 -20 -15
-35 -13 -18 -17 -41 -15 -76 2 -28 5 -48 7 -46 3 2 15 -5 27 -17 12 -11 40
-23 63 -26 25 -4 42 -11 44 -22 3 -11 5 -9 6 6 0 12 10 24 21 28 49 16 73 85
49 139 -10 22 -9 28 12 46 l24 21 -28 -17 c-26 -16 -31 -16 -63 -1 -37 18 -67
20 -99 8z"/>
<path d="M2110 5686 c0 -3 14 -12 30 -21 17 -9 30 -13 30 -11 0 3 -13 12 -30
21 -16 9 -30 13 -30 11z"/>
<path d="M1921 5664 c0 -11 3 -14 6 -6 3 7 2 16 -1 19 -3 4 -6 -2 -5 -13z"/>
<path d="M2654 5664 c-18 -14 -18 -15 4 -4 12 6 22 13 22 15 0 8 -5 6 -26 -11z"/>
<path d="M3320 5650 c6 -11 13 -20 16 -20 2 0 0 9 -6 20 -6 11 -13 20 -16 20
-2 0 0 -9 6 -20z"/>
<path d="M4430 5639 c-19 -17 -27 -25 -17 -18 15 10 20 10 29 -2 8 -12 9 -12
5 1 -2 8 2 23 11 33 24 27 10 20 -28 -14z"/>
<path d="M2388 5620 c-13 -8 -27 -21 -31 -28 -6 -9 -19 -12 -35 -8 -23 5 -24
4 -7 -5 16 -8 19 -18 17 -52 -2 -26 2 -49 12 -62 14 -19 12 -23 -27 -65 l-42
-45 44 41 43 42 39 -16 c38 -15 39 -17 41 -66 l1 -51 6 54 c5 49 9 55 34 62
16 4 34 12 41 18 9 7 19 6 37 -5 24 -15 24 -15 4 3 -18 15 -19 23 -11 52 7 23
6 43 -2 64 -10 25 -9 32 6 44 15 13 15 13 -4 4 -17 -8 -26 -6 -46 12 -28 26
-85 29 -120 7z"/>
<path d="M4188 5590 c37 -41 39 -50 15 -50 -14 0 -15 -2 -5 -9 8 -5 15 -20 15
-34 1 -14 5 -23 10 -20 4 2 11 -6 16 -19 6 -13 10 -17 10 -10 1 6 6 12 11 12
6 0 11 -57 12 -147 l2 -148 6 144 c5 132 7 145 25 151 11 4 28 3 39 -2 14 -8
17 -7 10 4 -5 7 -9 27 -11 43 -4 54 -6 64 -14 59 -5 -3 -18 0 -30 7 -16 8 -28
8 -47 0 -22 -11 -29 -8 -61 21 l-36 33 33 -35z"/>
<path d="M3980 5583 c0 -10 4 -14 8 -8 4 6 11 13 16 18 5 4 2 7 -7 7 -10 0
-17 -8 -17 -17z"/>
<path d="M4359 5583 c-13 -16 -12 -17 4 -4 16 13 21 21 13 21 -2 0 -10 -8 -17
-17z"/>
<path d="M1941 5574 c0 -11 3 -14 6 -6 3 7 2 16 -1 19 -3 4 -6 -2 -5 -13z"/>
<path d="M4511 5544 c0 -11 3 -14 6 -6 3 7 2 16 -1 19 -3 4 -6 -2 -5 -13z"/>
<path d="M2930 5480 c6 -11 13 -20 16 -20 2 0 0 9 -6 20 -6 11 -13 20 -16 20
-2 0 0 -9 6 -20z"/>
<path d="M3096 5483 c-6 -14 -5 -15 5 -6 7 7 10 15 7 18 -3 3 -9 -2 -12 -12z"/>
<path d="M4521 5484 c0 -11 3 -14 6 -6 3 7 2 16 -1 19 -3 4 -6 -2 -5 -13z"/>
<path d="M3535 5482 c-10 -7 -18 -32 -10 -32 2 0 9 9 15 20 12 22 11 24 -5 12z"/>
<path d="M4490 5485 c0 -5 5 -17 10 -25 5 -8 10 -10 10 -5 0 6 -5 17 -10 25
-5 8 -10 11 -10 5z"/>
<path d="M3478 5463 c7 -3 16 -2 19 1 4 3 -2 6 -13 5 -11 0 -14 -3 -6 -6z"/>
<path d="M3428 5453 c7 -3 16 -2 19 1 4 3 -2 6 -13 5 -11 0 -14 -3 -6 -6z"/>
<path d="M1561 5434 c0 -11 3 -14 6 -6 3 7 2 16 -1 19 -3 4 -6 -2 -5 -13z"/>
<path d="M4531 5434 c0 -11 3 -14 6 -6 3 7 2 16 -1 19 -3 4 -6 -2 -5 -13z"/>
<path d="M3240 5330 c0 -101 -2 -110 -19 -110 -10 0 -38 -7 -61 -15 -39 -14
-44 -14 -57 2 -13 17 -14 17 -5 -1 8 -15 3 -26 -26 -54 -31 -32 -37 -34 -56
-22 -21 13 -21 12 -3 -8 17 -19 17 -22 3 -51 -9 -16 -16 -37 -16 -45 0 -8 -8
-20 -17 -25 -10 -6 -13 -11 -7 -11 16 0 25 -93 11 -102 -8 -5 -7 -8 4 -8 19 0
42 -46 33 -63 -4 -7 -3 -9 1 -4 5 4 17 -1 27 -10 18 -16 16 -19 -44 -82 l-63
-66 65 62 c65 62 65 62 89 44 22 -17 23 -19 7 -49 -9 -18 -14 -32 -12 -32 3 0
12 13 21 29 13 27 18 29 42 21 16 -4 40 -11 56 -14 l27 -6 0 -90 c0 -57 -4
-90 -11 -90 -5 0 -20 -8 -33 -17 -20 -15 -22 -21 -12 -51 5 -19 20 -39 33 -45
12 -5 24 -17 26 -26 4 -14 5 -13 6 2 0 9 7 17 15 17 8 0 24 8 36 18 19 15 22
24 16 55 -5 29 -12 37 -36 42 l-30 7 0 88 0 88 51 11 c28 6 60 16 71 22 15 8
24 7 40 -8 20 -18 21 -18 8 3 -11 18 -8 25 29 62 23 23 40 42 37 42 -3 0 1 15
9 33 17 41 20 89 10 150 -6 38 -18 59 -58 103 l-50 55 29 32 c28 31 28 31 -10
-3 -29 -26 -37 -30 -32 -15 6 15 4 17 -5 8 -8 -9 -21 -8 -51 3 -22 8 -49 14
-59 14 -17 0 -19 9 -19 94 0 52 4 96 9 98 5 2 3 9 -5 16 -12 11 -14 -3 -14
-98z"/>
<path d="M3031 5418 c-24 -4 -47 -6 -50 -4 -13 9 2 -80 18 -99 35 -43 107 -9
113 54 2 22 -1 37 -6 34 -5 -3 -14 0 -20 8 -8 11 -21 13 -55 7z"/>
<path d="M1641 5404 c0 -11 3 -14 6 -6 3 7 2 16 -1 19 -3 4 -6 -2 -5 -13z"/>
<path d="M3490 5402 c-20 -25 -22 -39 -5 -46 9 -3 12 0 9 9 -3 7 -1 23 6 34
13 26 9 27 -10 3z"/>
<path d="M1309 5393 c-13 -16 -12 -17 4 -4 9 7 17 15 17 17 0 8 -8 3 -21 -13z"/>
<path d="M3569 5383 l-24 -28 28 24 c25 23 32 31 24 31 -2 0 -14 -12 -28 -27z"/>
<path d="M4216 5395 c-9 -26 -7 -32 5 -12 6 10 9 21 6 23 -2 3 -7 -2 -11 -11z"/>
<path d="M3168 5393 c7 -3 16 -2 19 1 4 3 -2 6 -13 5 -11 0 -14 -3 -6 -6z"/>
<path d="M3895 5389 c-4 -6 -5 -12 -2 -15 2 -3 7 2 10 11 7 17 1 20 -8 4z"/>
<path d="M2670 5381 c0 -7 -5 -9 -12 -5 -7 5 -8 3 -3 -5 5 -9 10 -10 18 -2 6
6 8 14 4 18 -4 3 -7 1 -7 -6z"/>
<path d="M4524 5369 c-14 -16 -20 -17 -33 -6 -14 10 -14 10 -4 -4 7 -9 14 -38
15 -65 1 -27 3 -43 6 -36 3 9 8 9 25 0 27 -14 57 -18 57 -6 0 12 34 10 50 -4
12 -11 12 -10 0 5 -7 10 -13 35 -13 57 0 22 6 47 13 57 12 15 12 16 0 6 -18
-17 -39 -16 -72 1 -24 13 -28 12 -44 -5z"/>
<path d="M3713 5335 c0 -27 2 -38 4 -22 2 15 2 37 0 50 -2 12 -4 0 -4 -28z"/>
<path d="M4035 5354 l-30 -26 33 22 c17 12 32 23 32 26 0 7 -4 5 -35 -22z"/>
<path d="M1651 5344 c0 -11 3 -14 6 -6 3 7 2 16 -1 19 -3 4 -6 -2 -5 -13z"/>
<path d="M2680 5356 c0 -2 8 -10 18 -17 15 -13 16 -12 3 4 -13 16 -21 21 -21
13z"/>
<path d="M3507 5327 c3 -4 -3 -18 -13 -30 -18 -21 -18 -22 1 -5 17 16 19 16
32 0 13 -15 13 -15 4 4 -6 13 -7 24 -1 30 6 6 3 10 -9 10 -11 0 -17 -4 -14 -9z"/>
<path d="M2195 5268 l-50 -53 53 50 c48 46 57 55 49 55 -1 0 -25 -24 -52 -52z"/>
<path d="M1661 5294 c0 -11 3 -14 6 -6 3 7 2 16 -1 19 -3 4 -6 -2 -5 -13z"/>
<path d="M2453 5240 c0 -36 2 -50 4 -32 2 17 2 47 0 65 -2 17 -4 3 -4 -33z"/>
<path d="M3919 5273 c-13 -16 -12 -17 4 -4 9 7 17 15 17 17 0 8 -8 3 -21 -13z"/>
<path d="M3840 5270 c0 -5 -10 -10 -23 -10 -31 0 -67 -35 -67 -64 0 -26 40
-74 57 -69 6 2 13 -4 16 -14 4 -15 5 -14 6 3 1 25 33 37 52 20 10 -9 11 -8 2
4 -6 8 -7 24 -3 35 8 22 -5 55 -26 68 -7 4 -11 14 -8 22 4 8 3 15 0 15 -3 0
-6 -4 -6 -10z"/>
<path d="M1671 5234 c0 -11 3 -14 6 -6 3 7 2 16 -1 19 -3 4 -6 -2 -5 -13z"/>
<path d="M4660 5236 c0 -2 8 -10 18 -17 15 -13 16 -12 3 4 -13 16 -21 21 -21
13z"/>
<path d="M2870 5226 c0 -2 8 -10 18 -17 15 -13 16 -12 3 4 -13 16 -21 21 -21
13z"/>
<path d="M4551 5204 c0 -11 3 -14 6 -6 3 7 2 16 -1 19 -3 4 -6 -2 -5 -13z"/>
<path d="M1502 5201 c-11 -7 -11 -9 2 -14 10 -4 16 -1 16 8 0 17 -1 17 -18 6z"/>
<path d="M3721 5188 c-1 -16 -7 -28 -13 -28 -9 0 -10 -3 -2 -8 6 -4 13 -14 16
-22 8 -25 15 32 7 60 l-7 25 -1 -27z"/>
<path d="M4344 5194 c-18 -14 -18 -15 4 -4 12 6 22 13 22 15 0 8 -5 6 -26 -11z"/>
<path d="M1650 5180 c-26 -26 -25 -56 3 -84 17 -17 31 -22 51 -19 17 4 34 -1
49 -13 22 -19 22 -19 5 1 -14 17 -15 22 -2 39 20 28 18 43 -11 71 -29 30 -68
32 -95 5z"/>
<path d="M2030 5193 c0 -6 -9 -15 -20 -18 -62 -20 -81 -102 -35 -148 24 -23
105 -43 105 -26 0 13 44 18 59 6 14 -11 14 -10 2 5 -10 13 -11 25 -3 47 8 24
7 37 -8 67 -11 20 -17 42 -13 48 4 7 1 7 -7 -1 -13 -12 -57 1 -72 22 -5 6 -8
6 -8 -2z"/>
<path d="M4730 5186 c0 -2 8 -10 18 -17 15 -13 16 -12 3 4 -13 16 -21 21 -21
13z"/>
<path d="M2483 5173 c-40 -8 -80 -94 -63 -137 4 -13 17 -31 27 -41 12 -12 20
-40 24 -79 l6 -61 1 56 2 56 38 -7 c41 -7 70 6 112 50 22 23 25 31 18 65 -17
78 -78 115 -165 98z"/>
<path d="M2945 5170 c3 -5 8 -10 11 -10 2 0 4 5 4 10 0 6 -5 10 -11 10 -5 0
-7 -4 -4 -10z"/>
<path d="M4300 5170 c-9 -6 -10 -10 -3 -10 6 0 15 5 18 10 8 12 4 12 -15 0z"/>
<path d="M4610 5165 c0 -5 5 -17 10 -25 5 -8 10 -10 10 -5 0 6 -5 17 -10 25
-5 8 -10 11 -10 5z"/>
<path d="M1911 5144 c0 -11 3 -14 6 -6 3 7 2 16 -1 19 -3 4 -6 -2 -5 -13z"/>
<path d="M4267 5153 c-2 -5 0 -21 4 -38 7 -29 7 -29 8 8 1 35 -3 46 -12 30z"/>
<path d="M1340 5136 c0 -2 8 -10 18 -17 15 -13 16 -12 3 4 -13 16 -21 21 -21
13z"/>
<path d="M1823 5123 c9 -2 23 -2 30 0 6 3 -1 5 -18 5 -16 0 -22 -2 -12 -5z"/>
<path d="M3615 5120 c-3 -6 1 -7 9 -4 18 7 21 14 7 14 -6 0 -13 -4 -16 -10z"/>
<path d="M4630 5115 c0 -5 5 -17 10 -25 5 -8 10 -10 10 -5 0 6 -5 17 -10 25
-5 8 -10 11 -10 5z"/>
<path d="M3781 5094 c0 -11 3 -14 6 -6 3 7 2 16 -1 19 -3 4 -6 -2 -5 -13z"/>
<path d="M1390 5096 c0 -2 8 -10 18 -17 15 -13 16 -12 3 4 -13 16 -21 21 -21
13z"/>
<path d="M3940 5096 c0 -2 8 -10 18 -17 15 -13 16 -12 3 4 -13 16 -21 21 -21
13z"/>
<path d="M4088 5089 c-2 -7 -22 -13 -43 -15 -59 -4 -60 -5 -62 -38 -4 -48 21
-76 65 -76 21 0 43 -4 50 -10 9 -7 9 -7 3 1 -6 8 -4 20 5 34 16 24 10 75 -8
75 -5 0 -6 9 -3 20 3 11 4 20 2 20 -3 0 -7 -5 -9 -11z"/>
<path d="M4148 5084 c-38 -20 -36 -28 2 -9 17 9 30 18 30 20 0 7 -1 6 -32 -11z"/>
<path d="M2173 5083 c9 -2 23 -2 30 0 6 3 -1 5 -18 5 -16 0 -22 -2 -12 -5z"/>
<path d="M2268 5073 c6 -2 18 -2 25 0 6 3 1 5 -13 5 -14 0 -19 -2 -12 -5z"/>
<path d="M3831 5064 c0 -11 3 -14 6 -6 3 7 2 16 -1 19 -3 4 -6 -2 -5 -13z"/>
<path d="M4272 4965 l-2 -121 -31 -11 c-18 -7 -36 -10 -41 -7 -5 3 -7 2 -6 -3
1 -4 -3 -18 -10 -30 -7 -12 -13 -42 -15 -66 -2 -37 2 -47 27 -68 16 -13 33
-29 39 -35 7 -7 26 -8 56 -2 31 6 49 4 59 -5 13 -10 14 -9 8 1 -4 7 1 23 13
38 42 54 32 123 -24 160 -20 13 -23 19 -14 36 6 11 8 22 6 25 -3 2 -8 -5 -12
-16 -3 -12 -15 -21 -25 -21 -18 0 -20 10 -23 123 l-3 122 -2 -120z"/>
<path d="M1191 5054 c0 -11 3 -14 6 -6 3 7 2 16 -1 19 -3 4 -6 -2 -5 -13z"/>
<path d="M2353 5063 c9 -2 23 -2 30 0 6 3 -1 5 -18 5 -16 0 -22 -2 -12 -5z"/>
<path d="M1636 5035 c-9 -26 -7 -32 5 -12 6 10 9 21 6 23 -2 3 -7 -2 -11 -11z"/>
<path d="M3731 5028 c-1 -25 -5 -30 -28 -27 -10 1 -21 -31 -22 -63 -1 -28 43
-69 66 -61 14 5 35 -31 25 -42 -4 -4 3 -3 15 4 12 6 25 17 29 24 5 7 1 6 -10
-2 -15 -13 -19 -13 -26 -1 -6 10 -3 22 10 35 26 28 26 71 0 87 -11 7 -20 20
-21 28 0 10 -2 11 -6 3 -8 -22 -21 -14 -26 15 l-4 27 -2 -27z"/>
<path d="M1466 5026 c3 -8 13 -17 22 -21 13 -5 13 -2 -3 15 -21 24 -26 25 -19
6z"/>
<path d="M1671 5024 c0 -11 3 -14 6 -6 3 7 2 16 -1 19 -3 4 -6 -2 -5 -13z"/>
<path d="M1702 5015 c0 -16 2 -22 5 -12 2 9 2 23 0 30 -3 6 -5 -1 -5 -18z"/>
<path d="M1795 5010 c10 -11 20 -20 23 -20 3 0 -3 9 -13 20 -10 11 -20 20 -23
20 -3 0 3 -9 13 -20z"/>
<path d="M2713 5023 c9 -2 23 -2 30 0 6 3 -1 5 -18 5 -16 0 -22 -2 -12 -5z"/>
<path d="M2808 5013 c6 -2 18 -2 25 0 6 3 1 5 -13 5 -14 0 -19 -2 -12 -5z"/>
<path d="M2877 5013 c-4 -3 -7 -11 -7 -17 0 -6 5 -5 12 2 6 6 9 14 7 17 -3 3
-9 2 -12 -2z"/>
<path d="M1202 4990 c0 -14 2 -19 5 -12 2 6 2 18 0 25 -3 6 -5 1 -5 -13z"/>
<path d="M2908 5003 c7 -3 16 -2 19 1 4 3 -2 6 -13 5 -11 0 -14 -3 -6 -6z"/>
<path d="M2185 4970 c10 -11 20 -20 23 -20 3 0 -3 9 -13 20 -10 11 -20 20 -23
20 -3 0 3 -9 13 -20z"/>
<path d="M1555 4949 c17 -20 32 -34 34 -32 3 2 16 -7 30 -19 l25 -23 -25 31
c-13 17 -26 30 -28 28 -3 -3 -18 8 -35 23 l-30 28 29 -36z"/>
<path d="M3851 4964 c0 -11 3 -14 6 -6 3 7 2 16 -1 19 -3 4 -6 -2 -5 -13z"/>
<path d="M1661 4954 c0 -11 3 -14 6 -6 3 7 2 16 -1 19 -3 4 -6 -2 -5 -13z"/>
<path d="M3558 4963 c7 -3 16 -2 19 1 4 3 -2 6 -13 5 -11 0 -14 -3 -6 -6z"/>
<path d="M3638 4953 c7 -3 16 -2 19 1 4 3 -2 6 -13 5 -11 0 -14 -3 -6 -6z"/>
<path d="M2220 4946 c0 -2 8 -10 18 -17 15 -13 16 -12 3 4 -13 16 -21 21 -21
13z"/>
<path d="M1712 4915 c0 -16 2 -22 5 -12 2 9 2 23 0 30 -3 6 -5 -1 -5 -18z"/>
<path d="M1211 4914 c0 -11 3 -14 6 -6 3 7 2 16 -1 19 -3 4 -6 -2 -5 -13z"/>
<path d="M3860 4909 c0 -11 4 -18 10 -14 5 3 7 12 3 20 -7 21 -13 19 -13 -6z"/>
<path d="M4125 4910 c10 -11 20 -20 23 -20 3 0 -3 9 -13 20 -10 11 -20 20 -23
20 -3 0 3 -9 13 -20z"/>
<path d="M1651 4894 c0 -11 13 -33 32 -50 l32 -29 -27 30 c-14 17 -28 39 -31
50 -5 19 -5 19 -6 -1z"/>
<path d="M2295 4880 c10 -11 20 -20 23 -20 3 0 -3 9 -13 20 -10 11 -20 20 -23
20 -3 0 3 -9 13 -20z"/>
<path d="M2816 4885 c-9 -26 -7 -32 5 -12 6 10 9 21 6 23 -2 3 -7 -2 -11 -11z"/>
<path d="M4165 4860 c10 -11 20 -20 23 -20 3 0 -3 9 -13 20 -10 11 -20 20 -23
20 -3 0 3 -9 13 -20z"/>
<path d="M1222 4850 c0 -14 2 -19 5 -12 2 6 2 18 0 25 -3 6 -5 1 -5 -13z"/>
<path d="M1431 4834 c0 -11 3 -14 6 -6 3 7 2 16 -1 19 -3 4 -6 -2 -5 -13z"/>
<path d="M1641 4824 c0 -11 3 -14 6 -6 3 7 2 16 -1 19 -3 4 -6 -2 -5 -13z"/>
<path d="M1721 4804 c0 -16 3 -23 6 -16 4 10 8 10 21 0 12 -9 11 -5 -3 12 -11
14 -21 27 -22 29 -2 2 -3 -9 -2 -25z"/>
<path d="M2776 4821 c-15 -6 -16 -9 -5 -13 8 -3 20 1 27 8 14 15 7 17 -22 5z"/>
<path d="M3507 4819 c7 -7 15 -10 18 -7 3 3 -2 9 -12 12 -14 6 -15 5 -6 -5z"/>
<path d="M3805 4800 c9 -16 18 -30 21 -30 2 0 -2 14 -11 30 -9 17 -18 30 -21
30 -2 0 2 -13 11 -30z"/>
<path d="M3881 4814 c0 -11 3 -14 6 -6 3 7 2 16 -1 19 -3 4 -6 -2 -5 -13z"/>
<path d="M1521 4793 c-10 -26 -10 -27 4 -9 8 11 15 23 15 28 0 15 -7 8 -19
-19z"/>
<path d="M1965 4800 c10 -11 20 -20 23 -20 3 0 -3 9 -13 20 -10 11 -20 20 -23
20 -3 0 3 -9 13 -20z"/>
<path d="M2481 4804 c-1 -29 -39 -38 -66 -16 l-20 17 20 -23 c12 -15 18 -35
17 -55 -1 -18 2 -38 7 -46 12 -19 87 -23 102 -5 6 8 19 14 28 15 10 0 11 2 4
6 -7 2 -13 15 -13 27 0 19 -59 85 -61 68 0 -4 -4 2 -9 13 -8 19 -9 19 -9 -1z"/>
<path d="M3706 4794 c-4 -14 -5 -28 -3 -31 3 -2 8 8 11 23 4 14 5 28 3 31 -3
2 -8 -8 -11 -23z"/>
<path d="M1232 4780 c0 -14 2 -19 5 -12 2 6 2 18 0 25 -3 6 -5 1 -5 -13z"/>
<path d="M2954 4758 l-29 -33 33 29 c17 17 32 31 32 33 0 8 -8 1 -36 -29z"/>
<path d="M1632 4760 c0 -14 2 -19 5 -12 2 6 2 18 0 25 -3 6 -5 1 -5 -13z"/>
<path d="M3891 4764 c0 -11 3 -14 6 -6 3 7 2 16 -1 19 -3 4 -6 -2 -5 -13z"/>
<path d="M2747 4735 c-24 -50 -20 -58 4 -12 11 22 19 41 17 43 -3 2 -12 -12
-21 -31z"/>
<path d="M2015 4740 c10 -11 20 -20 23 -20 3 0 -3 9 -13 20 -10 11 -20 20 -23
20 -3 0 3 -9 13 -20z"/>
<path d="M2131 4744 c0 -11 3 -14 6 -6 3 7 2 16 -1 19 -3 4 -6 -2 -5 -13z"/>
<path d="M3630 4756 c0 -3 9 -10 20 -16 11 -6 20 -8 20 -6 0 3 -9 10 -20 16
-11 6 -20 8 -20 6z"/>
<path d="M1800 4746 c0 -2 8 -10 18 -17 15 -13 16 -12 3 4 -13 16 -21 21 -21
13z"/>
<path d="M3686 4732 c-3 -6 -1 -14 5 -17 14 -9 20 -2 10 14 -6 8 -11 9 -15 3z"/>
<path d="M1241 4714 c0 -11 3 -14 6 -6 3 7 2 16 -1 19 -3 4 -6 -2 -5 -13z"/>
<path d="M1732 4710 c0 -14 2 -19 5 -12 2 6 2 18 0 25 -3 6 -5 1 -5 -13z"/>
<path d="M2884 4698 l-19 -23 23 19 c21 18 27 26 19 26 -2 0 -12 -10 -23 -22z"/>
<path d="M1621 4694 c0 -11 3 -14 6 -6 3 7 2 16 -1 19 -3 4 -6 -2 -5 -13z"/>
<path d="M2055 4690 c10 -11 20 -20 23 -20 3 0 -3 9 -13 20 -10 11 -20 20 -23
20 -3 0 3 -9 13 -20z"/>
<path d="M3559 4689 l-24 -20 28 17 c15 9 27 18 27 20 0 8 -8 4 -31 -17z"/>
<path d="M3919 4677 c-18 -5 -42 -16 -51 -24 -10 -9 -22 -12 -30 -7 -10 6 -10
4 1 -9 7 -9 11 -24 7 -32 -3 -8 -1 -27 5 -42 8 -23 6 -31 -23 -62 l-33 -36 35
32 c26 24 39 30 50 23 8 -5 25 -10 37 -10 14 0 23 -7 26 -22 l4 -23 2 23 c0
12 7 22 15 22 7 0 25 9 38 20 14 10 29 16 34 12 5 -4 4 -1 -3 7 -6 7 -9 20 -6
27 6 17 -16 74 -28 74 -5 0 -17 8 -27 18 -15 15 -25 16 -53 9z"/>
<path d="M1252 4645 c0 -16 2 -22 5 -12 2 9 2 23 0 30 -3 6 -5 -1 -5 -18z"/>
<path d="M2822 4645 c-16 -13 -31 -22 -34 -20 -3 3 -5 -2 -5 -10 0 -10 4 -12
12 -5 7 5 16 6 20 2 5 -4 5 -2 2 5 -4 6 5 20 20 32 16 11 25 21 21 21 -3 0
-20 -11 -36 -25z"/>
<path d="M2095 4640 c10 -11 20 -20 23 -20 3 0 -3 9 -13 20 -10 11 -20 20 -23
20 -3 0 3 -9 13 -20z"/>
<path d="M2414 4638 l-19 -23 23 19 c21 18 27 26 19 26 -2 0 -12 -10 -23 -22z"/>
<path d="M2702 4635 c-14 -30 -12 -31 10 -5 10 10 14 22 9 24 -4 3 -13 -6 -19
-19z"/>
<path d="M1611 4634 c0 -11 3 -14 6 -6 3 7 2 16 -1 19 -3 4 -6 -2 -5 -13z"/>
<path d="M2540 4630 c6 -11 13 -20 16 -20 2 0 0 9 -6 20 -6 11 -13 20 -16 20
-2 0 0 -9 6 -20z"/>
<path d="M2860 4625 c-19 -14 -29 -25 -22 -25 23 0 12 -44 -20 -80 l-33 -35
36 33 c20 19 39 29 43 24 12 -19 57 -23 88 -7 43 21 62 20 55 -5 -8 -30 0 -24
19 13 9 17 11 27 4 21 -18 -18 -50 -5 -50 20 -1 30 -30 61 -61 63 -14 2 -41
-8 -59 -22z"/>
<path d="M3486 4641 c-3 -5 2 -15 12 -22 15 -12 16 -12 5 2 -7 9 -10 19 -6 22
3 4 4 7 0 7 -3 0 -8 -4 -11 -9z"/>
<path d="M1742 4610 c0 -14 2 -19 5 -12 2 6 2 18 0 25 -3 6 -5 1 -5 -13z"/>
<path d="M2161 4614 c0 -11 3 -14 6 -6 3 7 2 16 -1 19 -3 4 -6 -2 -5 -13z"/>
<path d="M2369 4583 c-13 -16 -12 -17 4 -4 9 7 17 15 17 17 0 8 -8 3 -21 -13z"/>
<path d="M2564 4592 c4 -7 -1 -23 -13 -38 -25 -32 -29 -105 -6 -124 14 -11 14
-15 -2 -34 -18 -21 -18 -21 2 -4 14 12 25 14 35 8 8 -5 36 -10 61 -10 37 0 50
-5 63 -22 13 -18 15 -19 7 -3 -8 17 -3 28 32 65 23 24 32 36 20 26 l-23 -19 0
39 c0 21 -5 46 -10 54 -6 10 -4 21 8 34 16 18 16 18 -6 5 -20 -12 -25 -12 -35
2 -8 10 -28 15 -62 14 -27 0 -56 4 -64 10 -11 7 -13 7 -7 -3z"/>
<path d="M3510 4596 c0 -2 8 -10 18 -17 15 -13 16 -12 3 4 -13 16 -21 21 -21
13z"/>
<path d="M1261 4574 c0 -11 3 -14 6 -6 3 7 2 16 -1 19 -3 4 -6 -2 -5 -13z"/>
<path d="M2005 4570 c10 -11 20 -20 23 -20 3 0 -3 9 -13 20 -10 11 -20 20 -23
20 -3 0 3 -9 13 -20z"/>
<path d="M2158 4566 c12 -16 22 -34 22 -41 0 -6 7 -12 15 -12 13 0 13 2 0 17
-8 9 -15 25 -15 35 0 10 -3 15 -7 12 -3 -4 -13 -1 -22 6 -8 6 -5 -1 7 -17z"/>
<path d="M1601 4564 c0 -11 3 -14 6 -6 3 7 2 16 -1 19 -3 4 -6 -2 -5 -13z"/>
<path d="M3359 4553 c-13 -16 -12 -17 4 -4 16 13 21 21 13 21 -2 0 -10 -8 -17
-17z"/>
<path d="M4380 4566 c0 -2 8 -10 18 -17 15 -13 16 -12 3 4 -13 16 -21 21 -21
13z"/>
<path d="M3554 4541 c13 -22 13 -27 -1 -55 -11 -21 -12 -31 -4 -34 8 -3 8 -9
-1 -25 -10 -20 -10 -21 5 -8 10 7 17 9 17 4 0 -5 17 -10 37 -11 20 -2 44 -8
53 -14 12 -10 13 -10 3 2 -10 11 -9 16 4 26 10 6 18 25 18 40 2 38 -34 66 -77
62 -23 -2 -39 3 -51 17 -18 20 -18 20 -3 -4z"/>
<path d="M2329 4533 c-13 -16 -12 -17 4 -4 16 13 21 21 13 21 -2 0 -10 -8 -17
-17z"/>
<path d="M2070 4515 c13 -14 26 -25 28 -25 3 0 -5 11 -18 25 -13 14 -26 25
-28 25 -3 0 5 -11 18 -25z"/>
<path d="M1752 4505 c0 -16 2 -22 5 -12 2 9 2 23 0 30 -3 6 -5 -1 -5 -18z"/>
<path d="M1591 4494 c0 -11 3 -14 6 -6 3 7 2 16 -1 19 -3 4 -6 -2 -5 -13z"/>
<path d="M4552 4490 c0 -14 2 -19 5 -12 2 6 2 18 0 25 -3 6 -5 1 -5 -13z"/>
<path d="M2130 4465 c13 -14 26 -25 28 -25 3 0 -5 11 -18 25 -13 14 -26 25
-28 25 -3 0 5 -11 18 -25z"/>
<path d="M2279 4473 c-13 -16 -12 -17 4 -4 16 13 21 21 13 21 -2 0 -10 -8 -17
-17z"/>
<path d="M4180 4480 c18 -12 30 -13 30 -2 0 4 -10 9 -22 9 -18 2 -20 0 -8 -7z"/>
<path d="M2244 4462 c15 -18 15 -20 -4 -37 -18 -17 -24 -17 -43 -6 -22 14 -22
14 -3 -8 19 -21 19 -21 0 -43 l-19 -22 27 20 c15 10 28 24 28 30 0 6 7 17 15
24 13 10 19 9 37 -6 13 -11 8 -1 -11 24 -18 23 -35 42 -38 42 -4 0 1 -8 11
-18z"/>
<path d="M2976 4463 c-6 -14 -5 -15 5 -6 7 7 10 15 7 18 -3 3 -9 -2 -12 -12z"/>
<path d="M3500 4440 c-8 -5 -10 -10 -5 -10 6 0 17 5 25 10 8 5 11 10 5 10 -5
0 -17 -5 -25 -10z"/>
<path d="M3952 4430 c0 -14 2 -19 5 -12 2 6 2 18 0 25 -3 6 -5 1 -5 -13z"/>
<path d="M4551 4434 c0 -11 3 -14 6 -6 3 7 2 16 -1 19 -3 4 -6 -2 -5 -13z"/>
<path d="M1581 4424 c0 -11 3 -14 6 -6 3 7 2 16 -1 19 -3 4 -6 -2 -5 -13z"/>
<path d="M4470 4436 c0 -2 8 -10 18 -17 15 -13 16 -12 3 4 -13 16 -21 21 -21
13z"/>
<path d="M1762 4405 c0 -16 2 -22 5 -12 2 9 2 23 0 30 -3 6 -5 -1 -5 -18z"/>
<path d="M4598 4405 c-12 -26 -38 -34 -38 -12 0 8 -4 7 -10 -3 -8 -13 -12 -13
-32 -1 -21 13 -22 13 -10 -2 9 -11 10 -17 2 -22 -6 -4 -10 -26 -9 -50 2 -24 6
-42 9 -40 4 2 15 -2 26 -9 10 -8 24 -11 32 -9 7 3 20 -3 28 -13 14 -18 15 -18
5 2 -8 16 -6 23 10 32 25 16 26 68 0 84 -18 11 -18 14 -5 40 8 15 12 28 9 28
-3 0 -11 -11 -17 -25z"/>
<path d="M3149 4403 c-13 -16 -12 -17 4 -4 9 7 17 15 17 17 0 8 -8 3 -21 -13z"/>
<path d="M3705 4390 c-10 -11 -21 -18 -25 -15 -4 2 -7 -2 -7 -9 0 -7 6 -13 14
-13 7 0 11 3 8 5 -3 3 5 16 17 29 12 13 19 23 16 23 -3 0 -13 -9 -23 -20z"/>
<path d="M1571 4364 c0 -11 3 -14 6 -6 3 7 2 16 -1 19 -3 4 -6 -2 -5 -13z"/>
<path d="M2489 4353 l-24 -28 28 24 c25 23 32 31 24 31 -2 0 -14 -12 -28 -27z"/>
<path d="M2664 4358 l-19 -23 23 19 c21 18 27 26 19 26 -2 0 -12 -10 -23 -22z"/>
<path d="M3961 4364 c0 -11 3 -14 6 -6 3 7 2 16 -1 19 -3 4 -6 -2 -5 -13z"/>
<path d="M2265 4350 c10 -11 20 -20 23 -20 3 0 -3 9 -13 20 -10 11 -20 20 -23
20 -3 0 3 -9 13 -20z"/>
<path d="M2905 4329 c-9 -17 -15 -33 -13 -35 3 -2 12 12 21 31 21 43 13 47 -8
4z"/>
<path d="M3039 4323 c-13 -16 -12 -17 4 -4 16 13 21 21 13 21 -2 0 -10 -8 -17
-17z"/>
<path d="M3230 4330 c-8 -5 -10 -10 -5 -10 6 0 17 5 25 10 8 5 11 10 5 10 -5
0 -17 -5 -25 -10z"/>
<path d="M3700 4336 c0 -2 8 -10 18 -17 15 -13 16 -12 3 4 -13 16 -21 21 -21
13z"/>
<path d="M1772 4305 c0 -16 2 -22 5 -12 2 9 2 23 0 30 -3 6 -5 -1 -5 -18z"/>
<path d="M2365 4310 c10 -11 20 -20 23 -20 3 0 -3 9 -13 20 -10 11 -20 20 -23
20 -3 0 3 -9 13 -20z"/>
<path d="M3585 4278 l-50 -53 53 50 c48 46 57 55 49 55 -1 0 -25 -24 -52 -52z"/>
<path d="M2120 4278 c-19 -24 -26 -37 -17 -29 19 15 61 71 54 71 -2 0 -19 -19
-37 -42z"/>
<path d="M2325 4300 c10 -11 20 -20 23 -20 3 0 -3 9 -13 20 -10 11 -20 20 -23
20 -3 0 3 -9 13 -20z"/>
<path d="M2379 4257 c-36 -34 -50 -49 -32 -33 32 29 33 29 53 11 11 -10 17
-22 13 -28 -9 -15 -10 -106 0 -100 10 6 38 -17 32 -26 -7 -12 88 -1 104 12 8
7 22 25 32 41 16 27 16 29 -3 62 -17 29 -18 37 -7 52 13 16 13 16 -7 0 -13
-12 -24 -14 -30 -8 -12 12 -51 14 -80 5 -13 -4 -25 -1 -34 10 -11 13 -9 19 10
40 43 46 16 25 -51 -38z"/>
<path d="M3971 4304 c0 -11 3 -14 6 -6 3 7 2 16 -1 19 -3 4 -6 -2 -5 -13z"/>
<path d="M1561 4294 c0 -11 3 -14 6 -6 3 7 2 16 -1 19 -3 4 -6 -2 -5 -13z"/>
<path d="M2760 4270 c6 -11 13 -20 16 -20 2 0 0 9 -6 20 -6 11 -13 20 -16 20
-2 0 0 -9 6 -20z"/>
<path d="M2241 4264 c0 -11 3 -14 6 -6 3 7 2 16 -1 19 -3 4 -6 -2 -5 -13z"/>
<path d="M3080 4270 c-8 -5 -10 -10 -5 -10 6 0 17 5 25 10 8 5 11 10 5 10 -5
0 -17 -5 -25 -10z"/>
<path d="M4449 4233 l-34 -38 38 34 c20 19 37 36 37 38 0 8 -8 0 -41 -34z"/>
<path d="M3030 4250 c-9 -6 -10 -10 -3 -10 6 0 15 5 18 10 8 12 4 12 -15 0z"/>
<path d="M3780 4230 c12 -16 24 -30 26 -30 3 0 -4 14 -16 30 -12 17 -24 30
-26 30 -3 0 4 -13 16 -30z"/>
<path d="M1551 4234 c0 -11 3 -14 6 -6 3 7 2 16 -1 19 -3 4 -6 -2 -5 -13z"/>
<path d="M2919 4233 c-13 -16 -12 -17 4 -4 16 13 21 21 13 21 -2 0 -10 -8 -17
-17z"/>
<path d="M3253 4180 c0 -41 2 -58 4 -37 2 20 2 54 0 75 -2 20 -4 3 -4 -38z"/>
<path d="M3981 4238 c0 -10 -6 -18 -12 -18 -6 0 -38 -12 -70 -26 -51 -23 -61
-25 -76 -13 -16 13 -17 12 -4 -4 12 -15 9 -22 -27 -61 -45 -48 -76 -104 -86
-153 -5 -22 -14 -33 -29 -36 -21 -4 -21 -4 -1 -6 18 -1 21 -8 22 -65 2 -63 23
-129 55 -171 14 -18 14 -22 -1 -40 -16 -18 -16 -19 0 -6 15 11 22 9 50 -15 18
-15 31 -32 30 -38 -2 -6 -1 -8 3 -4 4 3 32 -6 63 -20 50 -24 69 -27 157 -27
95 0 103 2 163 34 66 36 120 90 152 152 37 70 43 196 14 274 -32 88 -110 165
-203 202 -22 9 -41 19 -41 22 0 3 -34 6 -75 6 -58 0 -75 3 -79 15 -3 11 -4 11
-5 -2z"/>
<path d="M2784 4232 c3 -6 1 -22 -5 -36 -11 -24 -17 -25 -93 -29 l-81 -3 82
-2 c72 -2 82 -4 88 -22 6 -20 65 -52 75 -41 13 16 51 30 67 25 17 -5 17 -5 1
6 -12 7 -16 20 -14 40 2 17 -1 30 -6 30 -5 0 -6 5 -2 12 4 7 3 8 -5 4 -6 -4
-18 -2 -26 4 -8 6 -24 10 -37 9 -13 -2 -29 1 -37 5 -9 6 -12 5 -7 -2z"/>
<path d="M1782 4200 c0 -19 2 -27 5 -17 2 9 2 25 0 35 -3 9 -5 1 -5 -18z"/>
<path d="M2059 4203 c-13 -16 -12 -17 4 -4 9 7 17 15 17 17 0 8 -8 3 -21 -13z"/>
<path d="M2930 4210 c-8 -5 -10 -10 -5 -10 6 0 17 5 25 10 8 5 11 10 5 10 -5
0 -17 -5 -25 -10z"/>
<path d="M1230 4189 c-7 -11 -10 -23 -7 -25 2 -2 9 7 15 21 14 30 7 33 -8 4z"/>
<path d="M3450 4156 c-25 -29 -31 -38 -13 -23 17 16 33 25 35 20 3 -4 3 -2 2
5 -2 6 1 12 5 12 8 0 25 31 19 34 -2 1 -23 -21 -48 -48z"/>
<path d="M4551 4184 c0 -11 3 -14 6 -6 3 7 2 16 -1 19 -3 4 -6 -2 -5 -13z"/>
<path d="M1322 4170 c0 -14 2 -19 5 -12 2 6 2 18 0 25 -3 6 -5 1 -5 -13z"/>
<path d="M2264 4178 c2 -7 -4 -22 -13 -33 -11 -14 -7 -12 12 4 26 24 36 38 18
27 -5 -4 -12 -1 -14 4 -3 6 -4 5 -3 -2z"/>
<path d="M4364 4158 l-29 -33 33 29 c30 28 37 36 29 36 -2 0 -16 -15 -33 -32z"/>
<path d="M1541 4164 c0 -11 3 -14 6 -6 3 7 2 16 -1 19 -3 4 -6 -2 -5 -13z"/>
<path d="M2024 4158 l-19 -23 23 19 c21 18 27 26 19 26 -2 0 -12 -10 -23 -22z"/>
<path d="M1792 4110 c0 -19 2 -27 5 -17 2 9 2 25 0 35 -3 9 -5 1 -5 -18z"/>
<path d="M2648 4123 c7 -3 16 -2 19 1 4 3 -2 6 -13 5 -11 0 -14 -3 -6 -6z"/>
<path d="M3456 4115 c-9 -26 -7 -32 5 -12 6 10 9 21 6 23 -2 3 -7 -2 -11 -11z"/>
<path d="M1331 4104 c0 -11 3 -14 6 -6 3 7 2 16 -1 19 -3 4 -6 -2 -5 -13z"/>
<path d="M1974 4098 l-19 -23 23 19 c21 18 27 26 19 26 -2 0 -12 -10 -23 -22z"/>
<path d="M2688 4113 c7 -3 16 -2 19 1 4 3 -2 6 -13 5 -11 0 -14 -3 -6 -6z"/>
<path d="M4675 4090 c9 -16 18 -30 21 -30 2 0 -2 14 -11 30 -9 17 -18 30 -21
30 -2 0 2 -13 11 -30z"/>
<path d="M1531 4094 c0 -11 3 -14 6 -6 3 7 2 16 -1 19 -3 4 -6 -2 -5 -13z"/>
<path d="M2970 4100 c8 -5 20 -10 25 -10 6 0 3 5 -5 10 -8 5 -19 10 -25 10 -5
0 -3 -5 5 -10z"/>
<path d="M2174 4078 l-19 -23 23 19 c21 18 27 26 19 26 -2 0 -12 -10 -23 -22z"/>
<path d="M2768 4093 c7 -3 16 -2 19 1 4 3 -2 6 -13 5 -11 0 -14 -3 -6 -6z"/>
<path d="M3230 4083 c-23 -9 -79 -60 -73 -67 4 -3 1 -6 -5 -6 -8 0 -7 -13 2
-44 10 -33 11 -48 2 -57 -8 -9 -8 -10 2 -5 7 4 24 -2 39 -14 22 -17 38 -21 89
-18 35 1 61 4 59 6 -2 2 8 20 21 39 28 42 29 52 7 101 -9 20 -15 40 -15 44 1
4 -6 4 -15 1 -13 -5 -15 -2 -9 13 5 14 4 16 -4 7 -8 -7 -22 -8 -43 -2 -35 10
-35 10 -57 2z"/>
<path d="M2339 4063 c-13 -16 -12 -17 4 -4 9 7 17 15 17 17 0 8 -8 3 -21 -13z"/>
<path d="M2846 4065 c4 -8 7 -15 9 -15 2 0 5 7 9 15 3 9 0 15 -9 15 -9 0 -12
-6 -9 -15z"/>
<path d="M2284 4035 c-11 -23 -11 -24 12 -8 22 14 36 31 15 19 -5 -4 -11 -2
-13 4 -1 5 -8 -2 -14 -15z"/>
<path d="M2422 4035 c-17 -37 -14 -45 4 -12 9 16 14 31 11 33 -2 2 -9 -7 -15
-21z"/>
<path d="M1341 4034 c0 -11 3 -14 6 -6 3 7 2 16 -1 19 -3 4 -6 -2 -5 -13z"/>
<path d="M1522 4030 c0 -14 2 -19 5 -12 2 6 2 18 0 25 -3 6 -5 1 -5 -13z"/>
<path d="M1802 4005 c0 -16 2 -22 5 -12 2 9 2 23 0 30 -3 6 -5 -1 -5 -18z"/>
<path d="M2094 4008 l-19 -23 23 19 c21 18 27 26 19 26 -2 0 -12 -10 -23 -22z"/>
<path d="M3058 4023 c7 -3 16 -2 19 1 4 3 -2 6 -13 5 -11 0 -14 -3 -6 -6z"/>
<path d="M2301 4004 c0 -11 3 -14 6 -6 3 7 2 16 -1 19 -3 4 -6 -2 -5 -13z"/>
<path d="M2473 3985 c0 -22 2 -30 4 -17 2 12 2 30 0 40 -3 9 -5 -1 -4 -23z"/>
<path d="M3098 4013 c7 -3 16 -2 19 1 4 3 -2 6 -13 5 -11 0 -14 -3 -6 -6z"/>
<path d="M2580 3990 c6 -11 13 -20 16 -20 2 0 0 9 -6 20 -6 11 -13 20 -16 20
-2 0 0 -9 6 -20z"/>
<path d="M1351 3964 c0 -11 3 -14 6 -6 3 7 2 16 -1 19 -3 4 -6 -2 -5 -13z"/>
<path d="M1511 3964 c0 -11 3 -14 6 -6 3 7 2 16 -1 19 -3 4 -6 -2 -5 -13z"/>
<path d="M3396 3955 c-9 -26 -7 -32 5 -12 6 10 9 21 6 23 -2 3 -7 -2 -11 -11z"/>
<path d="M3428 3953 c6 -2 18 -2 25 0 6 3 1 5 -13 5 -14 0 -19 -2 -12 -5z"/>
<path d="M1839 3933 c-13 -16 -12 -17 4 -4 9 7 17 15 17 17 0 8 -8 3 -21 -13z"/>
<path d="M2004 3928 l-19 -23 23 19 c21 18 27 26 19 26 -2 0 -12 -10 -23 -22z"/>
<path d="M3508 3943 c7 -3 16 -2 19 1 4 3 -2 6 -13 5 -11 0 -14 -3 -6 -6z"/>
<path d="M2620 3920 c6 -11 13 -20 16 -20 2 0 0 9 -6 20 -6 11 -13 20 -16 20
-2 0 0 -9 6 -20z"/>
<path d="M2685 3910 c-9 -16 -13 -30 -11 -30 3 0 12 14 21 30 9 17 13 30 11
30 -3 0 -12 -13 -21 -30z"/>
<path d="M3578 3933 c6 -2 18 -2 25 0 6 3 1 5 -13 5 -14 0 -19 -2 -12 -5z"/>
<path d="M4527 3929 c-25 -15 -36 -50 -24 -76 6 -13 14 -23 18 -23 4 0 15 -7
23 -16 9 -8 16 -11 16 -6 0 5 13 12 28 15 18 4 33 16 40 32 11 24 9 29 -17 56
-31 30 -54 35 -84 18z"/>
<path d="M2321 3914 c0 -11 3 -14 6 -6 3 7 2 16 -1 19 -3 4 -6 -2 -5 -13z"/>
<path d="M2366 3915 c-9 -26 -7 -32 5 -12 6 10 9 21 6 23 -2 3 -7 -2 -11 -11z"/>
<path d="M1362 3900 c0 -14 2 -19 5 -12 2 6 2 18 0 25 -3 6 -5 1 -5 -13z"/>
<path d="M1501 3904 c0 -11 3 -14 6 -6 3 7 2 16 -1 19 -3 4 -6 -2 -5 -13z"/>
<path d="M1804 3895 c-9 -18 -9 -22 2 -18 15 6 26 31 16 37 -4 2 -12 -6 -18
-19z"/>
<path d="M2891 3894 c0 -11 3 -14 6 -6 3 7 2 16 -1 19 -3 4 -6 -2 -5 -13z"/>
<path d="M3119 3883 c-13 -16 -12 -17 4 -4 16 13 21 21 13 21 -2 0 -10 -8 -17
-17z"/>
<path d="M2333 3859 c0 -13 -4 -33 -8 -44 -8 -19 -8 -19 8 -3 19 18 21 36 8
57 -7 10 -9 8 -8 -10z"/>
<path d="M2463 3830 c0 -25 2 -35 4 -22 2 12 2 32 0 45 -2 12 -4 2 -4 -23z"/>
<path d="M2653 3858 c0 -7 8 -21 18 -32 18 -18 18 -18 6 13 -12 32 -24 41 -24
19z"/>
<path d="M3074 3854 c-18 -14 -18 -15 4 -4 12 6 22 13 22 15 0 8 -5 6 -26 -11z"/>
<path d="M3231 3844 c0 -11 3 -14 6 -6 3 7 2 16 -1 19 -3 4 -6 -2 -5 -13z"/>
<path d="M3370 3830 c27 -39 34 -39 12 0 -9 16 -21 30 -25 30 -5 0 1 -13 13
-30z"/>
<path d="M1491 3834 c0 -11 3 -14 6 -6 3 7 2 16 -1 19 -3 4 -6 -2 -5 -13z"/>
<path d="M2009 3833 c-13 -16 -12 -17 4 -4 9 7 17 15 17 17 0 8 -8 3 -21 -13z"/>
<path d="M1371 3824 c0 -11 3 -14 6 -6 3 7 2 16 -1 19 -3 4 -6 -2 -5 -13z"/>
<path d="M1749 3823 c-13 -16 -12 -17 4 -4 9 7 17 15 17 17 0 8 -8 3 -21 -13z"/>
<path d="M1260 3801 c0 -6 4 -13 10 -16 6 -3 7 1 4 9 -7 18 -14 21 -14 7z"/>
<path d="M2351 3784 c0 -11 3 -14 6 -6 3 7 2 16 -1 19 -3 4 -6 -2 -5 -13z"/>
<path d="M1482 3770 c0 -14 2 -19 5 -12 2 6 2 18 0 25 -3 6 -5 1 -5 -13z"/>
<path d="M1704 3768 l-19 -23 23 19 c21 18 27 26 19 26 -2 0 -12 -10 -23 -22z"/>
<path d="M2300 3769 c-7 -11 -10 -23 -7 -25 2 -2 9 7 15 21 14 30 7 33 -8 4z"/>
<path d="M1382 3760 c0 -14 2 -19 5 -12 2 6 2 18 0 25 -3 6 -5 1 -5 -13z"/>
<path d="M2917 3761 c-4 -17 -3 -21 5 -13 5 5 8 16 6 23 -3 8 -7 3 -11 -10z"/>
<path d="M3432 3745 c13 -19 27 -35 31 -35 4 0 -4 16 -19 35 -34 45 -41 45
-12 0z"/>
<path d="M3668 3773 c7 -3 16 -2 19 1 4 3 -2 6 -13 5 -11 0 -14 -3 -6 -6z"/>
<path d="M1774 3728 l-29 -33 33 29 c30 28 37 36 29 36 -2 0 -16 -15 -33 -32z"/>
<path d="M3211 3744 c0 -11 3 -14 6 -6 3 7 2 16 -1 19 -3 4 -6 -2 -5 -13z"/>
<path d="M1815 3701 c-14 -19 -14 -22 -3 -13 14 11 17 10 21 -5 4 -15 5 -15 6
3 0 11 6 25 11 30 7 7 7 11 -3 11 -7 0 -21 -12 -32 -26z"/>
<path d="M2453 3695 c0 -22 2 -30 4 -17 2 12 2 30 0 40 -3 9 -5 -1 -4 -23z"/>
<path d="M1300 3715 c0 -5 5 -17 10 -25 5 -8 10 -10 10 -5 0 6 -5 17 -10 25
-5 8 -10 11 -10 5z"/>
<path d="M1471 3704 c0 -11 3 -14 6 -6 3 7 2 16 -1 19 -3 4 -6 -2 -5 -13z"/>
<path d="M1392 3690 c0 -14 2 -19 5 -12 2 6 2 18 0 25 -3 6 -5 1 -5 -13z"/>
<path d="M3640 3700 c-9 -6 -10 -10 -3 -10 6 0 15 5 18 10 8 12 4 12 -15 0z"/>
<path d="M1699 3663 l-34 -38 38 34 c20 19 37 36 37 38 0 8 -8 0 -41 -34z"/>
<path d="M3288 3678 c-15 -15 -15 -18 -3 -18 8 0 15 4 15 10 0 5 8 7 18 4 10
-4 13 -2 7 3 -5 4 -12 11 -15 14 -3 3 -13 -3 -22 -13z"/>
<path d="M3470 3696 c0 -2 8 -10 18 -17 15 -13 16 -12 3 4 -13 16 -21 21 -21
13z"/>
<path d="M2256 3675 c-9 -26 -7 -32 5 -12 6 10 9 21 6 23 -2 3 -7 -2 -11 -11z"/>
<path d="M1619 3663 c-13 -16 -12 -17 4 -4 9 7 17 15 17 17 0 8 -8 3 -21 -13z"/>
<path d="M2381 3654 c0 -11 3 -14 6 -6 3 7 2 16 -1 19 -3 4 -6 -2 -5 -13z"/>
<path d="M3550 3660 c-8 -5 -10 -10 -5 -10 6 0 17 5 25 10 8 5 11 10 5 10 -5
0 -17 -5 -25 -10z"/>
<path d="M2766 3651 c-3 -5 1 -11 9 -14 9 -4 12 -1 8 9 -6 16 -10 17 -17 5z"/>
<path d="M3190 3645 c0 -9 6 -12 15 -9 8 4 15 7 15 9 0 2 -7 5 -15 9 -9 3 -15
0 -15 -9z"/>
<path d="M3503 3646 c0 -7 6 -13 14 -13 7 0 13 4 13 8 0 4 -6 9 -13 12 -8 3
-14 0 -14 -7z"/>
<path d="M1462 3630 c0 -14 2 -19 5 -12 2 6 2 18 0 25 -3 6 -5 1 -5 -13z"/>
<path d="M1401 3624 c0 -11 3 -14 6 -6 3 7 2 16 -1 19 -3 4 -6 -2 -5 -13z"/>
<path d="M1584 3618 l-19 -23 23 19 c21 18 27 26 19 26 -2 0 -12 -10 -23 -22z"/>
<path d="M1624 3598 l-29 -33 33 29 c30 28 37 36 29 36 -2 0 -16 -15 -33 -32z"/>
<path d="M3465 3620 c-3 -6 1 -7 9 -4 18 7 21 14 7 14 -6 0 -13 -4 -16 -10z"/>
<path d="M1842 3600 c0 -14 2 -19 5 -12 2 6 2 18 0 25 -3 6 -5 1 -5 -13z"/>
<path d="M3530 3616 c0 -2 8 -10 18 -17 15 -13 16 -12 3 4 -13 16 -21 21 -21
13z"/>
<path d="M3694 3598 l-19 -23 23 19 c21 18 27 26 19 26 -2 0 -12 -10 -23 -22z"/>
<path d="M1350 3605 c0 -5 5 -17 10 -25 5 -8 10 -10 10 -5 0 6 -5 17 -10 25
-5 8 -10 11 -10 5z"/>
<path d="M3181 3594 c0 -11 3 -14 6 -6 3 7 2 16 -1 19 -3 4 -6 -2 -5 -13z"/>
<path d="M2810 3580 c6 -11 13 -20 16 -20 2 0 0 9 -6 20 -6 11 -13 20 -16 20
-2 0 0 -9 6 -20z"/>
<path d="M1452 3568 c-2 -31 -28 -39 -35 -10 -3 12 -5 11 -6 -6 -1 -14 -6 -22
-13 -20 -7 3 -25 -11 -40 -30 -40 -50 -39 -113 2 -152 16 -15 35 -38 40 -51 9
-21 10 -21 7 -3 -5 22 -3 23 110 36 7 1 11 3 9 5 -2 3 6 23 19 45 22 39 23 44
9 71 -9 16 -13 34 -11 40 2 7 5 17 6 22 2 6 10 19 19 30 9 11 3 8 -14 -7 -29
-27 -51 -37 -40 -19 3 5 0 9 -7 8 -38 -1 -46 4 -50 36 -3 29 -4 29 -5 5z"/>
<path d="M1539 3563 l-24 -28 28 24 c25 23 32 31 24 31 -2 0 -14 -12 -28 -27z"/>
<path d="M2206 3563 c-6 -14 -5 -15 5 -6 7 7 10 15 7 18 -3 3 -9 -2 -12 -12z"/>
<path d="M2401 3564 c0 -11 3 -14 6 -6 3 7 2 16 -1 19 -3 4 -6 -2 -5 -13z"/>
<path d="M2443 3545 c0 -22 2 -30 4 -17 2 12 2 30 0 40 -3 9 -5 -1 -4 -23z"/>
<path d="M2956 3573 c5 -5 12 -12 16 -18 4 -6 8 -2 8 8 0 9 -7 17 -17 17 -9 0
-12 -3 -7 -7z"/>
<path d="M3639 3553 l-24 -28 28 24 c25 23 32 31 24 31 -2 0 -14 -12 -28 -27z"/>
<path d="M3570 3566 c0 -2 8 -10 18 -17 15 -13 16 -12 3 4 -13 16 -21 21 -21
13z"/>
<path d="M4280 3556 c0 -2 8 -10 18 -17 15 -13 16 -12 3 4 -13 16 -21 21 -21
13z"/>
<path d="M1579 3533 c-13 -16 -12 -17 4 -4 16 13 21 21 13 21 -2 0 -10 -8 -17
-17z"/>
<path d="M2817 3537 c-8 -6 -8 -7 3 -4 8 2 21 -5 28 -17 12 -18 13 -18 7 -2
-3 11 0 23 7 27 8 5 5 8 -10 6 -13 -1 -28 -5 -35 -10z"/>
<path d="M2186 3525 c-9 -26 -7 -32 5 -12 6 10 9 21 6 23 -2 3 -7 -2 -11 -11z"/>
<path d="M3236 3523 c-9 -22 -4 -24 17 -8 14 10 15 14 3 18 -8 3 -17 -1 -20
-10z"/>
<path d="M3789 3523 c-13 -16 -12 -17 4 -4 9 7 17 15 17 17 0 8 -8 3 -21 -13z"/>
<path d="M2476 3513 c-6 -14 -5 -15 5 -6 7 7 10 15 7 18 -3 3 -9 -2 -12 -12z"/>
<path d="M3584 3508 c-19 -23 -19 -23 2 -6 16 14 23 15 34 5 12 -10 12 -9 1 6
-17 21 -14 21 -37 -5z"/>
<path d="M1852 3495 c0 -16 2 -22 5 -12 2 9 2 23 0 30 -3 6 -5 -1 -5 -18z"/>
<path d="M4310 3516 c0 -2 8 -10 18 -17 15 -13 16 -12 3 4 -13 16 -21 21 -21
13z"/>
<path d="M3160 3498 c0 -9 -4 -18 -8 -20 -5 -1 -5 -14 -1 -28 l7 -25 1 27 c1
14 5 28 11 30 6 2 6 8 0 18 -8 13 -10 13 -10 -2z"/>
<path d="M4092 3490 c0 -14 2 -19 5 -12 2 6 2 18 0 25 -3 6 -5 1 -5 -13z"/>
<path d="M2512 3484 c-18 -12 -26 -13 -37 -4 -22 18 -66 7 -88 -21 -16 -22
-17 -30 -7 -49 10 -19 8 -26 -17 -54 l-28 -31 30 27 c22 20 37 25 58 21 15 -3
27 -10 27 -17 0 -8 2 -8 8 0 15 22 46 33 65 22 10 -5 21 -7 24 -5 2 3 -5 8
-16 12 -12 3 -21 13 -21 20 0 11 20 15 78 18 l77 3 -76 2 c-62 2 -78 5 -83 19
-5 11 1 23 16 35 29 22 21 24 -10 2z"/>
<path d="M3981 3484 c0 -11 3 -14 6 -6 3 7 2 16 -1 19 -3 4 -6 -2 -5 -13z"/>
<path d="M3630 3486 c0 -2 8 -10 18 -17 15 -13 16 -12 3 4 -13 16 -21 21 -21
13z"/>
<path d="M3745 3460 c-3 -5 -12 -7 -20 -3 -28 10 -62 -6 -75 -36 -6 -17 -9
-34 -6 -40 3 -5 0 -12 -6 -14 -9 -4 -7 -6 3 -6 9 -1 22 -7 28 -15 6 -7 22 -11
36 -8 16 3 34 -2 48 -14 18 -16 19 -16 8 -1 -18 22 1 46 38 48 23 2 24 2 4 6
-14 3 -23 12 -23 22 0 10 -7 24 -15 31 -9 7 -14 19 -11 27 6 15 0 18 -9 3z"/>
<path d="M2518 3453 c7 -3 16 -2 19 1 4 3 -2 6 -13 5 -11 0 -14 -3 -6 -6z"/>
<path d="M3483 3429 c-18 -19 -33 -22 -100 -22 l-78 -1 68 -3 c63 -4 68 -5 55
-21 -8 -10 -1 -7 16 6 15 12 33 19 40 15 6 -3 8 -2 3 2 -4 5 0 17 10 27 23 25
12 23 -14 -3z"/>
<path d="M2897 3426 c11 -19 21 -20 151 -16 39 2 43 3 22 10 -14 4 -19 8 -11
9 8 1 12 4 9 7 -4 3 -16 0 -28 -6 -18 -10 -24 -9 -31 1 -6 10 -9 11 -9 2 0 -9
-15 -13 -43 -13 -24 0 -49 6 -56 13 -11 10 -12 9 -4 -7z"/>
<path d="M1858 3395 c2 -19 6 -35 8 -35 2 0 4 16 4 35 0 19 -4 35 -8 35 -4 0
-6 -16 -4 -35z"/>
<path d="M3972 3410 c0 -14 2 -19 5 -12 2 6 2 18 0 25 -3 6 -5 1 -5 -13z"/>
<path d="M4101 3414 c0 -11 3 -14 6 -6 3 7 2 16 -1 19 -3 4 -6 -2 -5 -13z"/>
<path d="M3142 3400 c0 -14 2 -19 5 -12 2 6 2 18 0 25 -3 6 -5 1 -5 -13z"/>
<path d="M2125 3389 c-4 -6 -5 -12 -2 -15 2 -3 7 2 10 11 7 17 1 20 -8 4z"/>
<path d="M4700 3390 c-8 -5 -10 -10 -5 -10 6 0 17 5 25 10 8 5 11 10 5 10 -5
0 -17 -5 -25 -10z"/>
<path d="M2920 3378 c0 -14 15 -16 27 -3 10 11 9 13 -7 12 -11 -1 -20 -5 -20
-9z"/>
<path d="M4410 3386 c0 -2 8 -10 18 -17 15 -13 16 -12 3 4 -13 16 -21 21 -21
13z"/>
<path d="M2567 3359 c7 -7 15 -10 18 -7 3 3 -2 9 -12 12 -14 6 -15 5 -6 -5z"/>
<path d="M3838 3363 c7 -3 16 -2 19 1 4 3 -2 6 -13 5 -11 0 -14 -3 -6 -6z"/>
<path d="M4689 3333 l-34 -38 38 34 c20 19 37 36 37 38 0 8 -8 0 -41 -34z"/>
<path d="M3131 3344 c0 -11 3 -14 6 -6 3 7 2 16 -1 19 -3 4 -6 -2 -5 -13z"/>
<path d="M3374 3338 l-19 -23 23 19 c21 18 27 26 19 26 -2 0 -12 -10 -23 -22z"/>
<path d="M3878 3353 c7 -3 16 -2 19 1 4 3 -2 6 -13 5 -11 0 -14 -3 -6 -6z"/>
<path d="M3961 3349 c-1 -12 19 -20 79 -34 78 -18 80 -19 81 -49 2 -29 2 -30
6 -4 2 15 12 28 21 30 9 2 -27 14 -80 26 -53 13 -99 29 -102 35 -2 7 -5 6 -5
-4z"/>
<path d="M4111 3344 c0 -11 3 -14 6 -6 3 7 2 16 -1 19 -3 4 -6 -2 -5 -13z"/>
<path d="M3918 3343 c6 -2 18 -2 25 0 6 3 1 5 -13 5 -14 0 -19 -2 -12 -5z"/>
<path d="M4595 3340 c-3 -5 -2 -10 4 -10 5 0 13 5 16 10 3 6 2 10 -4 10 -5 0
-13 -4 -16 -10z"/>
<path d="M4526 3310 c-24 -15 -33 -17 -45 -7 -12 9 -13 9 -8 0 10 -17 -69 -57
-108 -55 -25 1 -27 0 -10 -8 26 -11 68 -12 61 -1 -6 9 43 35 51 27 3 -2 -5
-14 -16 -25 -12 -12 -16 -21 -11 -21 18 0 11 -48 -7 -53 -16 -4 -16 -5 -1 -6
19 -1 88 -67 88 -84 0 -8 3 -7 9 1 4 8 17 13 27 11 89 -11 157 96 104 163 -10
14 -16 29 -12 33 4 5 2 5 -5 1 -7 -4 -20 1 -30 11 -10 10 -27 17 -37 15 -11
-3 -16 0 -12 7 10 16 -5 12 -38 -9z"/>
<path d="M2678 3302 c18 -10 31 -20 28 -23 -3 -3 3 -5 13 -5 10 0 24 7 31 14
11 12 10 13 -8 8 -12 -4 -34 0 -51 8 -17 9 -34 16 -38 16 -4 -1 7 -9 25 -18z"/>
<path d="M3031 3304 c0 -11 3 -14 6 -6 3 7 2 16 -1 19 -3 4 -6 -2 -5 -13z"/>
<path d="M3121 3304 c0 -11 3 -14 6 -6 3 7 2 16 -1 19 -3 4 -6 -2 -5 -13z"/>
<path d="M1872 3290 c0 -14 2 -19 5 -12 2 6 2 18 0 25 -3 6 -5 1 -5 -13z"/>
<path d="M3319 3293 c-13 -16 -12 -17 4 -4 9 7 17 15 17 17 0 8 -8 3 -21 -13z"/>
<path d="M1610 3235 c30 -30 57 -55 59 -55 3 0 -19 25 -49 55 -30 30 -57 55
-59 55 -3 0 19 -25 49 -55z"/>
<path d="M3951 3274 c0 -11 3 -14 6 -6 3 7 2 16 -1 19 -3 4 -6 -2 -5 -13z"/>
<path d="M4190 3280 c14 -4 34 -8 45 -8 16 0 15 2 -5 8 -14 4 -34 8 -45 8 -16
0 -15 -2 5 -8z"/>
<path d="M2066 3265 c-9 -26 -7 -32 5 -12 6 10 9 21 6 23 -2 3 -7 -2 -11 -11z"/>
<path d="M3041 3264 c0 -11 3 -14 6 -6 3 7 2 16 -1 19 -3 4 -6 -2 -5 -13z"/>
<path d="M4260 3270 c0 -6 7 -10 15 -10 8 0 15 2 15 4 0 2 -7 6 -15 10 -8 3
-15 1 -15 -4z"/>
<path d="M3111 3254 c0 -11 3 -14 6 -6 3 7 2 16 -1 19 -3 4 -6 -2 -5 -13z"/>
<path d="M3269 3253 c-13 -16 -12 -17 4 -4 16 13 21 21 13 21 -2 0 -10 -8 -17
-17z"/>
<path d="M2630 3245 c-14 -8 -20 -14 -15 -14 6 0 21 6 35 14 14 8 21 14 15 14
-5 0 -21 -6 -35 -14z"/>
<path d="M2770 3256 c0 -2 7 -7 16 -10 8 -3 12 -2 9 4 -6 10 -25 14 -25 6z"/>
<path d="M3000 3240 c6 -11 13 -20 16 -20 2 0 0 9 -6 20 -6 11 -13 20 -16 20
-2 0 0 -9 6 -20z"/>
<path d="M3800 3256 c0 -2 8 -10 18 -17 15 -13 16 -12 3 4 -13 16 -21 21 -21
13z"/>
<path d="M4308 3253 c7 -3 16 -2 19 1 4 3 -2 6 -13 5 -11 0 -14 -3 -6 -6z"/>
<path d="M2381 3214 c0 -11 3 -14 6 -6 3 7 2 16 -1 19 -3 4 -6 -2 -5 -13z"/>
<path d="M2830 3226 c0 -2 7 -7 16 -10 8 -3 12 -2 9 4 -6 10 -25 14 -25 6z"/>
<path d="M3214 3208 l-19 -23 23 19 c12 11 22 21 22 23 0 8 -8 2 -26 -19z"/>
<path d="M3942 3210 c0 -14 2 -19 5 -12 2 6 2 18 0 25 -3 6 -5 1 -5 -13z"/>
<path d="M2555 3210 c-3 -6 1 -7 9 -4 18 7 21 14 7 14 -6 0 -13 -4 -16 -10z"/>
<path d="M3101 3209 c-1 -24 -52 -31 -69 -11 -12 15 -12 15 -3 -3 7 -15 4 -26
-10 -44 -10 -13 -19 -32 -19 -42 0 -11 -7 -19 -17 -20 -14 0 -13 -2 5 -9 27
-11 27 -17 5 -44 -17 -20 -17 -20 -1 -7 15 11 23 11 52 -3 19 -9 39 -16 44
-16 6 0 13 -8 15 -17 4 -14 5 -12 6 5 0 12 7 22 14 22 7 0 23 9 36 21 17 16
21 30 20 65 -2 24 -7 44 -12 44 -6 0 -2 10 9 23 l19 22 -22 -19 c-19 -15 -25
-17 -38 -6 -9 8 -13 21 -10 34 5 15 4 17 -3 7 -8 -11 -10 -11 -15 0 -4 10 -6
10 -6 -2z"/>
<path d="M1882 3190 c0 -14 2 -19 5 -12 2 6 2 18 0 25 -3 6 -5 1 -5 -13z"/>
<path d="M3274 3194 c-18 -14 -18 -14 6 -3 31 14 36 19 24 19 -6 0 -19 -7 -30
-16z"/>
<path d="M4132 3190 c0 -14 2 -19 5 -12 2 6 2 18 0 25 -3 6 -5 1 -5 -13z"/>
<path d="M4268 3189 c-21 -11 -38 -22 -38 -24 0 -5 79 32 89 41 12 11 -18 1
-51 -17z"/>
<path d="M3220 3170 c-8 -5 -10 -10 -5 -10 6 0 17 5 25 10 8 5 11 10 5 10 -5
0 -17 -5 -25 -10z"/>
<path d="M1371 3154 c0 -11 3 -14 6 -6 3 7 2 16 -1 19 -3 4 -6 -2 -5 -13z"/>
<path d="M2016 3153 c-6 -14 -5 -15 5 -6 7 7 10 15 7 18 -3 3 -9 -2 -12 -12z"/>
<path d="M2430 3155 c-14 -8 -20 -14 -15 -14 6 0 21 6 35 14 14 8 21 14 15 14
-5 0 -21 -6 -35 -14z"/>
<path d="M3931 3148 c-1 -21 -21 -23 -40 -5 -10 9 -12 9 -7 0 4 -7 -3 -19 -17
-28 -27 -18 -47 -55 -47 -90 0 -20 -8 -27 -47 -39 -43 -14 -28 -14 30 -1 28 7
62 -45 43 -66 -9 -11 -8 -11 6 0 9 7 23 9 29 5 19 -11 101 -5 124 10 17 11 22
10 38 -8 18 -21 18 -21 3 4 -10 17 -12 30 -6 40 5 8 10 32 10 52 0 26 5 38 18
41 16 4 16 5 -1 6 -11 1 -15 6 -11 13 4 6 3 8 -4 4 -6 -3 -27 5 -48 19 -20 14
-43 25 -50 25 -7 0 -15 8 -17 18 -4 16 -5 16 -6 0z"/>
<path d="M4356 3150 c-16 -5 -33 -7 -38 -4 -4 3 -8 1 -8 -4 0 -5 -17 -13 -37
-20 -29 -8 -31 -10 -8 -6 39 6 155 42 135 42 -8 0 -28 -4 -44 -8z"/>
<path d="M1750 3085 c35 -36 67 -65 69 -65 3 0 -24 29 -59 65 -35 36 -67 65
-69 65 -3 0 24 -29 59 -65z"/>
<path d="M2356 3125 c-3 -8 -1 -15 4 -15 13 0 22 18 11 24 -5 3 -11 -1 -15 -9z"/>
<path d="M2521 3114 c0 -11 3 -14 6 -6 3 7 2 16 -1 19 -3 4 -6 -2 -5 -13z"/>
<path d="M4110 3115 c-14 -8 -20 -14 -15 -14 6 -1 17 3 25 9 9 6 17 5 22 -3 5
-8 8 -6 8 6 0 20 -7 21 -40 2z"/>
<path d="M1892 3090 c0 -19 2 -27 5 -17 2 9 2 25 0 35 -3 9 -5 1 -5 -18z"/>
<path d="M1995 3109 c-4 -6 -5 -12 -2 -15 2 -3 7 2 10 11 7 17 1 20 -8 4z"/>
<path d="M4165 3095 c-39 -14 -40 -14 -5 -8 41 7 82 22 60 22 -8 0 -33 -7 -55
-14z"/>
<path d="M4330 3085 c0 -5 5 -17 10 -25 5 -8 10 -10 10 -5 0 6 -5 17 -10 25
-5 8 -10 11 -10 5z"/>
<path d="M2908 3073 c6 -2 18 -2 25 0 6 3 1 5 -13 5 -14 0 -19 -2 -12 -5z"/>
<path d="M4098 3073 c7 -3 16 -2 19 1 4 3 -2 6 -13 5 -11 0 -14 -3 -6 -6z"/>
<path d="M2848 3063 c6 -2 18 -2 25 0 6 3 1 5 -13 5 -14 0 -19 -2 -12 -5z"/>
<path d="M2200 3050 c-9 -6 -10 -10 -3 -10 6 0 15 5 18 10 8 12 4 12 -15 0z"/>
<path d="M2788 3053 c7 -3 16 -2 19 1 4 3 -2 6 -13 5 -11 0 -14 -3 -6 -6z"/>
<path d="M4152 3040 c0 -14 2 -19 5 -12 2 6 2 18 0 25 -3 6 -5 1 -5 -13z"/>
<path d="M2728 3043 c7 -3 16 -2 19 1 4 3 -2 6 -13 5 -11 0 -14 -3 -6 -6z"/>
<path d="M4581 3034 c0 -11 3 -14 6 -6 3 7 2 16 -1 19 -3 4 -6 -2 -5 -13z"/>
<path d="M2658 3033 c6 -2 18 -2 25 0 6 3 1 5 -13 5 -14 0 -19 -2 -12 -5z"/>
<path d="M3571 3035 c0 -6 -16 -11 -35 -11 -44 0 -84 -27 -102 -69 -7 -18 -22
-36 -31 -38 -14 -4 -13 -5 5 -6 23 -1 31 -26 10 -34 -10 -4 -10 -6 -1 -6 7 -1
27 -16 44 -34 30 -31 34 -33 85 -27 29 3 57 9 61 13 4 4 43 -27 87 -70 44 -43
68 -64 53 -47 -28 31 -27 54 2 32 10 -8 9 -4 -3 10 -19 22 -32 30 -21 13 3 -5
1 -12 -3 -15 -5 -3 -24 10 -42 29 -19 19 -30 35 -25 35 4 0 1 8 -8 18 -13 14
-14 21 -5 30 6 6 12 28 13 49 2 32 7 39 36 49 19 7 29 13 22 13 -6 1 -23 -3
-37 -8 -20 -8 -27 -6 -40 14 -8 13 -24 26 -35 30 -11 3 -22 14 -24 23 -3 9 -5
12 -6 7z"/>
<path d="M2598 3023 c7 -3 16 -2 19 1 4 3 -2 6 -13 5 -11 0 -14 -3 -6 -6z"/>
<path d="M2326 2992 c-4 -18 -5 -36 -2 -39 3 -4 6 1 6 10 0 11 9 17 23 18 15
1 17 3 5 6 -9 2 -18 12 -21 21 -2 10 -6 4 -11 -16z"/>
<path d="M2532 3013 c22 -6 32 -33 12 -33 -8 0 -23 -13 -32 -30 -16 -29 -20
-30 -97 -32 l-80 -2 80 -3 c66 -3 83 -7 95 -24 9 -11 32 -24 52 -28 32 -7 38
-5 59 20 l23 28 365 0 c200 1 366 3 369 6 5 5 -136 6 -526 5 l-204 0 -20 26
c-11 14 -31 30 -44 34 -13 5 -24 16 -24 25 0 9 -8 15 -22 14 -16 -1 -18 -3 -6
-6z"/>
<path d="M2468 3003 c7 -3 16 -2 19 1 4 3 -2 6 -13 5 -11 0 -14 -3 -6 -6z"/>
<path d="M3320 3000 c8 -5 20 -10 25 -10 6 0 3 5 -5 10 -8 5 -19 10 -25 10 -5
0 -3 -5 5 -10z"/>
<path d="M2398 2993 c6 -2 18 -2 25 0 6 3 1 5 -13 5 -14 0 -19 -2 -12 -5z"/>
<path d="M3061 2984 c0 -11 3 -14 6 -6 3 7 2 16 -1 19 -3 4 -6 -2 -5 -13z"/>
<path d="M4591 2984 c0 -11 3 -14 6 -6 3 7 2 16 -1 19 -3 4 -6 -2 -5 -13z"/>
<path d="M4162 2970 c0 -14 2 -19 5 -12 2 6 2 18 0 25 -3 6 -5 1 -5 -13z"/>
<path d="M2278 2973 c7 -3 16 -2 19 1 4 3 -2 6 -13 5 -11 0 -14 -3 -6 -6z"/>
<path d="M2899 2963 c-13 -16 -12 -17 4 -4 16 13 21 21 13 21 -2 0 -10 -8 -17
-17z"/>
<path d="M2208 2963 c6 -2 18 -2 25 0 6 3 1 5 -13 5 -14 0 -19 -2 -12 -5z"/>
<path d="M2148 2953 c7 -3 16 -2 19 1 4 3 -2 6 -13 5 -11 0 -14 -3 -6 -6z"/>
<path d="M2088 2943 c7 -3 16 -2 19 1 4 3 -2 6 -13 5 -11 0 -14 -3 -6 -6z"/>
<path d="M4481 2934 c0 -11 3 -14 6 -6 3 7 2 16 -1 19 -3 4 -6 -2 -5 -13z"/>
<path d="M1321 2924 c0 -11 3 -14 6 -6 3 7 2 16 -1 19 -3 4 -6 -2 -5 -13z"/>
<path d="M4601 2924 c0 -11 3 -14 6 -6 3 7 2 16 -1 19 -3 4 -6 -2 -5 -13z"/>
<path d="M4171 2894 c0 -11 3 -14 6 -6 3 7 2 16 -1 19 -3 4 -6 -2 -5 -13z"/>
<path d="M3121 2884 c0 -11 3 -14 6 -6 3 7 2 16 -1 19 -3 4 -6 -2 -5 -13z"/>
<path d="M3810 2870 c-12 -16 -19 -30 -16 -30 2 0 14 14 26 30 12 17 19 30 16
30 -2 0 -14 -13 -26 -30z"/>
<path d="M4406 2883 c2 -6 -3 -14 -10 -16 -8 -3 -16 -17 -20 -32 -8 -31 15
-75 39 -75 8 0 15 -6 15 -12 0 -8 3 -9 8 -3 4 6 14 11 22 13 23 5 50 33 50 52
0 31 -39 70 -70 70 -16 0 -30 3 -33 8 -2 4 -2 2 -1 -5z"/>
<path d="M1311 2874 c0 -11 3 -14 6 -6 3 7 2 16 -1 19 -3 4 -6 -2 -5 -13z"/>
<path d="M3892 2870 c0 -14 2 -19 5 -12 2 6 2 18 0 25 -3 6 -5 1 -5 -13z"/>
<path d="M4611 2864 c0 -11 3 -14 6 -6 3 7 2 16 -1 19 -3 4 -6 -2 -5 -13z"/>
<path d="M3041 2854 c0 -11 3 -14 6 -6 3 7 2 16 -1 19 -3 4 -6 -2 -5 -13z"/>
<path d="M4090 2856 c0 -2 8 -10 18 -17 15 -13 16 -12 3 4 -13 16 -21 21 -21
13z"/>
<path d="M3131 2834 c0 -11 3 -14 6 -6 3 7 2 16 -1 19 -3 4 -6 -2 -5 -13z"/>
<path d="M2709 2823 c-13 -16 -12 -17 4 -4 9 7 17 15 17 17 0 8 -8 3 -21 -13z"/>
<path d="M4182 2820 c0 -14 2 -19 5 -12 2 6 2 18 0 25 -3 6 -5 1 -5 -13z"/>
<path d="M4622 2810 c0 -14 2 -19 5 -12 2 6 2 18 0 25 -3 6 -5 1 -5 -13z"/>
<path d="M3882 2800 c0 -14 2 -19 5 -12 2 6 2 18 0 25 -3 6 -5 1 -5 -13z"/>
<path d="M2110 2806 c0 -3 9 -10 20 -16 11 -6 20 -8 20 -6 0 3 -9 10 -20 16
-11 6 -20 8 -20 6z"/>
<path d="M2280 2800 c0 -5 5 -10 11 -10 5 0 7 5 4 10 -3 6 -8 10 -11 10 -2 0
-4 -4 -4 -10z"/>
<path d="M2661 2790 c-29 -25 -41 -25 -42 -2 0 9 -3 12 -5 6 -3 -6 -1 -19 3
-30 7 -18 11 -17 43 13 38 36 39 44 1 13z"/>
<path d="M3031 2794 c0 -11 3 -14 6 -6 3 7 2 16 -1 19 -3 4 -6 -2 -5 -13z"/>
<path d="M3685 2790 c10 -11 20 -20 23 -20 3 0 -3 9 -13 20 -10 11 -20 20 -23
20 -3 0 3 -9 13 -20z"/>
<path d="M1291 2784 c0 -11 3 -14 6 -6 3 7 2 16 -1 19 -3 4 -6 -2 -5 -13z"/>
<path d="M3136 2785 c-3 -8 -1 -15 4 -15 6 0 10 7 10 15 0 8 -2 15 -4 15 -2 0
-6 -7 -10 -15z"/>
<path d="M4191 2752 c-1 -7 -6 -10 -13 -6 -6 4 -4 -3 5 -17 9 -13 18 -35 18
-49 1 -14 3 -18 5 -10 3 9 0 33 -5 55 -5 22 -9 34 -10 27z"/>
<path d="M2589 2733 c-13 -16 -12 -17 4 -4 9 7 17 15 17 17 0 8 -8 3 -21 -13z"/>
<path d="M3021 2734 c0 -11 3 -14 6 -6 3 7 2 16 -1 19 -3 4 -6 -2 -5 -13z"/>
<path d="M3152 2730 c0 -14 2 -19 5 -12 2 6 2 18 0 25 -3 6 -5 1 -5 -13z"/>
<path d="M3871 2734 c0 -11 3 -14 6 -6 3 7 2 16 -1 19 -3 4 -6 -2 -5 -13z"/>
<path d="M2255 2720 c3 -5 11 -10 16 -10 6 0 7 5 4 10 -3 6 -11 10 -16 10 -6
0 -7 -4 -4 -10z"/>
<path d="M2543 2704 c0 -9 4 -11 10 -5 5 5 17 7 26 4 9 -4 13 -3 10 1 -13 14
-46 14 -46 0z"/>
<path d="M3689 2703 c-13 -16 -12 -17 4 -4 16 13 21 21 13 21 -2 0 -10 -8 -17
-17z"/>
<path d="M3795 2700 c10 -11 20 -20 23 -20 3 0 -3 9 -13 20 -10 11 -20 20 -23
20 -3 0 3 -9 13 -20z"/>
<path d="M4642 2690 c0 -14 2 -19 5 -12 2 6 2 18 0 25 -3 6 -5 1 -5 -13z"/>
<path d="M2635 2691 c-3 -5 -1 -12 5 -16 5 -3 10 1 10 9 0 18 -6 21 -15 7z"/>
<path d="M4411 2684 c0 -11 3 -14 6 -6 3 7 2 16 -1 19 -3 4 -6 -2 -5 -13z"/>
<path d="M3011 2674 c0 -11 3 -14 6 -6 3 7 2 16 -1 19 -3 4 -6 -2 -5 -13z"/>
<path d="M3844 2662 c24 -27 26 -27 25 1 0 12 -3 16 -6 9 -4 -10 -8 -10 -21 0
-12 9 -11 6 2 -10z"/>
<path d="M2750 2640 c-8 -5 -10 -10 -5 -10 6 0 17 5 25 10 8 5 11 10 5 10 -5
0 -17 -5 -25 -10z"/>
<path d="M4651 2634 c0 -11 3 -14 6 -6 3 7 2 16 -1 19 -3 4 -6 -2 -5 -13z"/>
<path d="M3171 2624 c0 -11 3 -14 6 -6 3 7 2 16 -1 19 -3 4 -6 -2 -5 -13z"/>
<path d="M2426 2614 c-5 -13 -4 -14 7 -6 8 7 18 8 22 4 5 -4 5 -1 1 6 -10 17
-23 15 -30 -4z"/>
<path d="M3002 2610 c0 -14 2 -19 5 -12 2 6 2 18 0 25 -3 6 -5 1 -5 -13z"/>
<path d="M3905 2610 c10 -11 20 -20 23 -20 3 0 -3 9 -13 20 -10 11 -20 20 -23
20 -3 0 3 -9 13 -20z"/>
<path d="M2655 2610 c-3 -5 -1 -10 4 -10 6 0 11 5 11 10 0 6 -2 10 -4 10 -3 0
-8 -4 -11 -10z"/>
<path d="M3852 2600 c0 -14 2 -19 5 -12 2 6 2 18 0 25 -3 6 -5 1 -5 -13z"/>
<path d="M4212 2600 c0 -14 2 -19 5 -12 2 6 2 18 0 25 -3 6 -5 1 -5 -13z"/>
<path d="M4270 2606 c0 -2 8 -10 18 -17 15 -13 16 -12 3 4 -13 16 -21 21 -21
13z"/>
<path d="M2513 2579 c9 -6 15 -14 12 -20 -3 -5 1 -6 9 -3 8 3 27 -2 43 -12 15
-10 24 -13 18 -7 -12 13 -83 53 -93 53 -4 0 1 -5 11 -11z"/>
<path d="M3181 2574 c0 -11 3 -14 6 -6 3 7 2 16 -1 19 -3 4 -6 -2 -5 -13z"/>
<path d="M4661 2574 c0 -11 3 -14 6 -6 3 7 2 16 -1 19 -3 4 -6 -2 -5 -13z"/>
<path d="M2976 2572 c7 -4 14 -16 17 -27 4 -15 5 -14 6 8 1 20 -4 27 -16 27
-12 0 -14 -3 -7 -8z"/>
<path d="M1241 2554 c0 -11 3 -14 6 -6 3 7 2 16 -1 19 -3 4 -6 -2 -5 -13z"/>
<path d="M3579 2553 c-13 -16 -12 -17 4 -4 16 13 21 21 13 21 -2 0 -10 -8 -17
-17z"/>
<path d="M2470 2540 c-8 -5 -10 -10 -5 -10 6 0 17 5 25 10 8 5 11 10 5 10 -5
0 -17 -5 -25 -10z"/>
<path d="M3842 2530 c0 -14 2 -19 5 -12 2 6 2 18 0 25 -3 6 -5 1 -5 -13z"/>
<path d="M4222 2520 c0 -14 2 -19 5 -12 2 6 2 18 0 25 -3 6 -5 1 -5 -13z"/>
<path d="M3190 2515 c0 -8 4 -15 10 -15 5 0 7 7 4 15 -4 8 -8 15 -10 15 -2 0
-4 -7 -4 -15z"/>
<path d="M3555 2519 c-4 -6 -5 -12 -2 -15 2 -3 7 2 10 11 7 17 1 20 -8 4z"/>
<path d="M4671 2514 c0 -11 3 -14 6 -6 3 7 2 16 -1 19 -3 4 -6 -2 -5 -13z"/>
<path d="M1231 2504 c0 -11 3 -14 6 -6 3 7 2 16 -1 19 -3 4 -6 -2 -5 -13z"/>
<path d="M2665 2496 c11 -9 26 -20 33 -26 8 -7 12 -7 12 -1 0 6 -15 18 -32 26
-28 13 -30 14 -13 1z"/>
<path d="M3930 2507 c0 -2 15 -16 33 -33 l32 -29 -29 33 c-28 30 -36 37 -36
29z"/>
<path d="M4356 2501 c-3 -5 1 -14 8 -20 12 -10 13 -8 9 8 -6 23 -9 25 -17 12z"/>
<path d="M2981 2484 c0 -11 3 -14 6 -6 3 7 2 16 -1 19 -3 4 -6 -2 -5 -13z"/>
<path d="M4050 2496 c0 -2 8 -10 18 -17 15 -13 16 -12 3 4 -13 16 -21 21 -21
13z"/>
<path d="M3201 2464 c0 -11 3 -14 6 -6 3 7 2 16 -1 19 -3 4 -6 -2 -5 -13z"/>
<path d="M3831 2464 c0 -11 3 -14 6 -6 3 7 2 16 -1 19 -3 4 -6 -2 -5 -13z"/>
<path d="M4232 2450 c0 -14 2 -19 5 -12 2 6 2 18 0 25 -3 6 -5 1 -5 -13z"/>
<path d="M3355 2450 c3 -5 8 -10 11 -10 2 0 4 5 4 10 0 6 -5 10 -11 10 -5 0
-7 -4 -4 -10z"/>
<path d="M4100 2456 c0 -2 8 -10 18 -17 15 -13 16 -12 3 4 -13 16 -21 21 -21
13z"/>
<path d="M2971 2424 c0 -11 3 -14 6 -6 3 7 2 16 -1 19 -3 4 -6 -2 -5 -13z"/>
<path d="M4078 2359 c45 -47 80 -88 77 -92 -3 -4 -2 -5 1 -3 3 3 22 -10 41
-27 30 -27 32 -33 19 -43 -9 -6 -13 -14 -9 -17 3 -4 -86 -7 -200 -7 -205 0
-206 0 -210 23 l-4 22 -2 -22 -1 -23 -199 0 -200 0 -15 31 c-12 23 -13 37 -5
53 9 20 9 20 -5 3 -12 -16 -17 -16 -35 -5 -12 7 -21 20 -21 28 0 12 -2 12 -9
2 -4 -8 -19 -13 -32 -12 -39 3 -46 1 -77 -25 -16 -13 -32 -21 -36 -18 -4 4 -4
0 -1 -9 4 -11 0 -18 -12 -21 -17 -4 -17 -5 0 -6 10 0 15 -6 12 -11 -4 -6 -1
-26 5 -46 11 -32 10 -38 -11 -62 l-24 -27 27 24 c25 22 28 22 50 7 36 -26 111
-21 147 9 16 14 31 36 33 48 l3 22 413 3 c264 1 412 -1 412 -8 0 -5 -8 -7 -17
-3 -10 3 -15 3 -11 -1 3 -4 12 -8 20 -10 7 -1 25 -10 40 -20 56 -37 129 17 99
72 -6 12 -20 23 -30 27 -11 3 -18 13 -16 23 1 9 0 11 -2 4 -3 -8 -11 -11 -19
-8 -8 3 -14 1 -14 -5 0 -10 -30 -9 -40 1 -3 3 -55 52 -115 110 -97 92 -100 95
-27 19z"/>
<path d="M3211 2414 c0 -11 3 -14 6 -6 3 7 2 16 -1 19 -3 4 -6 -2 -5 -13z"/>
<path d="M2810 2416 c0 -3 14 -12 30 -21 17 -9 30 -13 30 -11 0 3 -13 12 -30
21 -16 9 -30 13 -30 11z"/>
<path d="M3475 2410 c-3 -6 1 -7 9 -4 18 7 21 14 7 14 -6 0 -13 -4 -16 -10z"/>
<path d="M3822 2395 c0 -16 2 -22 5 -12 2 9 2 23 0 30 -3 6 -5 -1 -5 -18z"/>
<path d="M4691 2404 c0 -11 3 -14 6 -6 3 7 2 16 -1 19 -3 4 -6 -2 -5 -13z"/>
<path d="M4160 2406 c0 -2 8 -10 18 -17 15 -13 16 -12 3 4 -13 16 -21 21 -21
13z"/>
<path d="M2028 2393 c7 -3 16 -2 19 1 4 3 -2 6 -13 5 -11 0 -14 -3 -6 -6z"/>
<path d="M3336 2385 c-9 -26 -7 -32 5 -12 6 10 9 21 6 23 -2 3 -7 -2 -11 -11z"/>
<path d="M3449 2373 c-13 -16 -12 -17 4 -4 16 13 21 21 13 21 -2 0 -10 -8 -17
-17z"/>
<path d="M4241 2371 c-1 -20 -3 -22 -18 -11 -10 7 5 -9 32 -36 28 -27 52 -48
54 -47 2 2 11 -2 20 -8 9 -7 -5 8 -31 32 -26 24 -49 55 -51 69 -4 25 -4 25 -6
1z"/>
<path d="M1201 2364 c0 -11 3 -14 6 -6 3 7 2 16 -1 19 -3 4 -6 -2 -5 -13z"/>
<path d="M2961 2364 c0 -11 3 -14 6 -6 3 7 2 16 -1 19 -3 4 -6 -2 -5 -13z"/>
<path d="M2900 2366 c0 -3 9 -10 20 -16 11 -6 20 -8 20 -6 0 3 -9 10 -20 16
-11 6 -20 8 -20 6z"/>
<path d="M4701 2344 c0 -11 3 -14 6 -6 3 7 2 16 -1 19 -3 4 -6 -2 -5 -13z"/>
<path d="M3410 2320 c-12 -16 -19 -30 -16 -30 2 0 14 14 26 30 12 17 19 30 16
30 -2 0 -14 -13 -26 -30z"/>
<path d="M1808 2333 c7 -3 16 -2 19 1 4 3 -2 6 -13 5 -11 0 -14 -3 -6 -6z"/>
<path d="M2950 2336 c0 -2 7 -7 16 -10 8 -3 12 -2 9 4 -6 10 -25 14 -25 6z"/>
<path d="M3803 2326 c-10 -11 -9 -15 2 -20 10 -4 15 1 15 14 0 23 -1 24 -17 6z"/>
<path d="M2360 2295 c13 -14 26 -25 28 -25 3 0 -5 11 -18 25 -13 14 -26 25
-28 25 -3 0 5 -11 18 -25z"/>
<path d="M4251 2294 c0 -11 3 -14 6 -6 3 7 2 16 -1 19 -3 4 -6 -2 -5 -13z"/>
<path d="M1840 2290 c-8 -5 -10 -10 -5 -10 6 0 17 5 25 10 8 5 11 10 5 10 -5
0 -17 -5 -25 -10z"/>
<path d="M2750 2289 c0 -5 5 -7 10 -4 6 3 10 8 10 11 0 2 -4 4 -10 4 -5 0 -10
-5 -10 -11z"/>
<path d="M4711 2284 c0 -11 3 -14 6 -6 3 7 2 16 -1 19 -3 4 -6 -2 -5 -13z"/>
<path d="M4524 2257 c16 -20 30 -37 33 -37 7 0 -36 58 -49 66 -7 4 1 -9 16
-29z"/>
<path d="M2828 2273 c7 -3 16 -2 19 1 4 3 -2 6 -13 5 -11 0 -14 -3 -6 -6z"/>
<path d="M2868 2263 c7 -3 16 -2 19 1 4 3 -2 6 -13 5 -11 0 -14 -3 -6 -6z"/>
<path d="M3801 2254 c0 -11 3 -14 6 -6 3 7 2 16 -1 19 -3 4 -6 -2 -5 -13z"/>
<path d="M2940 2241 c0 -25 6 -27 13 -6 4 8 2 17 -3 20 -6 4 -10 -3 -10 -14z"/>
<path d="M3100 2256 c0 -3 9 -10 20 -16 11 -6 20 -8 20 -6 0 3 -9 10 -20 16
-11 6 -20 8 -20 6z"/>
<path d="M1478 2243 c7 -3 16 -2 19 1 4 3 -2 6 -13 5 -11 0 -14 -3 -6 -6z"/>
<path d="M2420 2247 c0 -2 15 -16 33 -33 l32 -29 -29 33 c-28 30 -36 37 -36
29z"/>
<path d="M4721 2234 c0 -11 3 -14 6 -6 3 7 2 16 -1 19 -3 4 -6 -2 -5 -13z"/>
<path d="M1700 2230 c-8 -5 -10 -10 -5 -10 6 0 17 5 25 10 8 5 11 10 5 10 -5
0 -17 -5 -25 -10z"/>
<path d="M4370 2236 c0 -2 8 -10 18 -17 15 -13 16 -12 3 4 -13 16 -21 21 -21
13z"/>
<path d="M1368 2213 c7 -3 16 -2 19 1 4 3 -2 6 -13 5 -11 0 -14 -3 -6 -6z"/>
<path d="M4560 2206 c0 -2 8 -10 18 -17 15 -13 16 -12 3 4 -13 16 -21 21 -21
13z"/>
<path d="M4731 2174 c0 -11 3 -14 6 -6 3 7 2 16 -1 19 -3 4 -6 -2 -5 -13z"/>
<path d="M1560 2170 c-8 -5 -10 -10 -5 -10 6 0 17 5 25 10 8 5 11 10 5 10 -5
0 -17 -5 -25 -10z"/>
<path d="M2500 2177 c0 -2 15 -16 33 -33 l32 -29 -29 33 c-28 30 -36 37 -36
29z"/>
<path d="M4485 2140 c10 -11 20 -20 23 -20 3 0 -3 9 -13 20 -10 11 -20 20 -23
20 -3 0 3 -9 13 -20z"/>
<path d="M3781 2124 c0 -11 3 -14 6 -6 3 7 2 16 -1 19 -3 4 -6 -2 -5 -13z"/>
<path d="M4138 2133 c7 -3 16 -2 19 1 4 3 -2 6 -13 5 -11 0 -14 -3 -6 -6z"/>
<path d="M4610 2136 c0 -2 8 -10 18 -17 15 -13 16 -12 3 4 -13 16 -21 21 -21
13z"/>
<path d="M1528 2123 c12 -2 30 -2 40 0 9 3 -1 5 -23 4 -22 0 -30 -2 -17 -4z"/>
<path d="M2921 2114 c0 -11 3 -14 6 -6 3 7 2 16 -1 19 -3 4 -6 -2 -5 -13z"/>
<path d="M4160 2120 c-8 -5 -10 -10 -5 -10 6 0 17 5 25 10 8 5 11 10 5 10 -5
0 -17 -5 -25 -10z"/>
<path d="M4741 2114 c0 -11 3 -14 6 -6 3 7 2 16 -1 19 -3 4 -6 -2 -5 -13z"/>
<path d="M1648 2113 c12 -2 30 -2 40 0 9 3 -1 5 -23 4 -22 0 -30 -2 -17 -4z"/>
<path d="M4048 2113 c7 -3 16 -2 19 1 4 3 -2 6 -13 5 -11 0 -14 -3 -6 -6z"/>
<path d="M1778 2103 c12 -2 30 -2 40 0 9 3 -1 5 -23 4 -22 0 -30 -2 -17 -4z"/>
<path d="M2600 2085 c13 -14 26 -25 28 -25 3 0 -5 11 -18 25 -13 14 -26 25
-28 25 -3 0 5 -11 18 -25z"/>
<path d="M4008 2103 c7 -3 16 -2 19 1 4 3 -2 6 -13 5 -11 0 -14 -3 -6 -6z"/>
<path d="M4530 2106 c0 -2 8 -10 18 -17 15 -13 16 -12 3 4 -13 16 -21 21 -21
13z"/>
<path d="M1888 2093 c12 -2 30 -2 40 0 9 3 -1 5 -23 4 -22 0 -30 -2 -17 -4z"/>
<path d="M3420 2090 c8 -5 20 -10 25 -10 6 0 3 5 -5 10 -8 5 -19 10 -25 10 -5
0 -3 -5 5 -10z"/>
<path d="M2018 2083 c12 -2 30 -2 40 0 9 3 -1 5 -23 4 -22 0 -30 -2 -17 -4z"/>
<path d="M2128 2073 c12 -2 32 -2 45 0 12 2 2 4 -23 4 -25 0 -35 -2 -22 -4z"/>
<path d="M3878 2073 c7 -3 16 -2 19 1 4 3 -2 6 -13 5 -11 0 -14 -3 -6 -6z"/>
<path d="M2258 2063 c12 -2 32 -2 45 0 12 2 2 4 -23 4 -25 0 -35 -2 -22 -4z"/>
<path d="M2912 2050 c0 -14 2 -19 5 -12 2 6 2 18 0 25 -3 6 -5 1 -5 -13z"/>
<path d="M3771 2054 c0 -11 3 -14 6 -6 3 7 2 16 -1 19 -3 4 -6 -2 -5 -13z"/>
<path d="M4020 2060 c-8 -5 -10 -10 -5 -10 6 0 17 5 25 10 8 5 11 10 5 10 -5
0 -17 -5 -25 -10z"/>
<path d="M4580 2066 c0 -2 8 -10 18 -17 15 -13 16 -12 3 4 -13 16 -21 21 -21
13z"/>
<path d="M4660 2066 c0 -2 8 -10 18 -17 15 -13 16 -12 3 4 -13 16 -21 21 -21
13z"/>
<path d="M4751 2054 c0 -11 3 -14 6 -6 3 7 2 16 -1 19 -3 4 -6 -2 -5 -13z"/>
<path d="M2378 2053 c12 -2 30 -2 40 0 9 3 -1 5 -23 4 -22 0 -30 -2 -17 -4z"/>
<path d="M2498 2043 c12 -2 30 -2 40 0 9 3 -1 5 -23 4 -22 0 -30 -2 -17 -4z"/>
<path d="M2748 2023 c12 -2 30 -2 40 0 9 3 -1 5 -23 4 -22 0 -30 -2 -17 -4z"/>
<path d="M3658 2023 c7 -3 16 -2 19 1 4 3 -2 6 -13 5 -11 0 -14 -3 -6 -6z"/>
<path d="M4645 2010 c10 -11 20 -20 23 -20 3 0 -3 9 -13 20 -10 11 -20 20 -23
20 -3 0 3 -9 13 -20z"/>
<path d="M4690 2026 c0 -2 8 -10 18 -17 15 -13 16 -12 3 4 -13 16 -21 21 -21
13z"/>
<path d="M3580 2010 c-12 -8 -10 -10 10 -9 14 1 32 0 40 -3 8 -3 12 -3 7 -1
-4 3 -5 9 -1 14 7 12 -37 11 -56 -1z"/>
<path d="M4510 2016 c0 -3 9 -10 20 -16 11 -6 20 -8 20 -6 0 3 -9 10 -20 16
-11 6 -20 8 -20 6z"/>
<path d="M3870 1995 c-14 -8 -20 -14 -15 -14 6 0 21 6 35 14 14 8 21 14 15 14
-5 0 -21 -6 -35 -14z"/>
<path d="M3488 1983 c7 -3 16 -2 19 1 4 3 -2 6 -13 5 -11 0 -14 -3 -6 -6z"/>
<path d="M2770 1676 c0 -8 4 -18 10 -21 6 -4 7 1 3 11 -5 13 -3 15 7 9 9 -5
11 -4 6 3 -10 17 -26 15 -26 -2z"/>
</g>
</svg>
